<svg width="96" height="96" xmlns="http://www.w3.org/2000/svg" xmlns:xlink="http://www.w3.org/1999/xlink" xml:space="preserve" overflow="hidden"><defs><clipPath id="clip0"><rect x="738" y="160" width="96" height="96"/></clipPath></defs><g clip-path="url(#clip0)" transform="translate(-738 -160)"><path d="M774.535 228.142C774.534 230.65 776.567 232.683 779.075 232.684 781.583 232.685 783.616 230.652 783.617 228.144 783.618 225.636 781.585 223.603 779.077 223.602 779.076 223.602 779.076 223.602 779.075 223.602 776.568 223.603 774.536 225.635 774.535 228.142ZM781.616 228.142C781.617 229.545 780.479 230.683 779.076 230.684 777.673 230.685 776.535 229.547 776.534 228.144 776.533 226.741 777.671 225.603 779.074 225.602 779.075 225.602 779.075 225.602 779.076 225.602 780.478 225.604 781.614 226.74 781.616 228.142Z"/><path d="M787.107 236.653C785.802 235.647 784.309 234.913 782.716 234.493 781.513 234.124 780.263 233.935 779.005 233.933 777.749 233.952 776.501 234.14 775.295 234.493 773.719 234.959 772.235 235.689 770.904 236.653 770.349 237.092 770.019 237.755 770.004 238.463L770.004 243 788.004 243 788.004 238.46C787.989 237.754 787.66 237.092 787.107 236.653ZM786.007 241 772 241 772 238.5C772.002 238.398 772.046 238.301 772.121 238.233 773.254 237.421 774.515 236.803 775.852 236.407 776.88 236.107 777.944 235.946 779.015 235.928 780.069 235.931 781.117 236.09 782.125 236.4L782.202 236.422C783.53 236.769 784.775 237.38 785.863 238.217 785.94 238.275 785.99 238.362 786.003 238.458Z"/><path d="M794.4 228.142C794.399 230.65 796.432 232.683 798.94 232.684 801.448 232.685 803.482 230.652 803.482 228.144 803.483 225.636 801.45 223.603 798.942 223.602 798.942 223.602 798.941 223.602 798.941 223.602 796.434 223.603 794.401 225.635 794.4 228.142ZM801.482 228.142C801.483 229.545 800.345 230.683 798.942 230.684 797.539 230.685 796.401 229.547 796.4 228.144 796.399 226.741 797.537 225.603 798.94 225.602 798.94 225.602 798.941 225.602 798.941 225.602 800.342 225.605 801.477 226.741 801.479 228.142Z"/><path d="M807.109 236.653C805.804 235.647 804.312 234.913 802.719 234.493 801.516 234.124 800.266 233.935 799.008 233.933 797.752 233.952 796.504 234.14 795.298 234.493 793.722 234.959 792.238 235.689 790.907 236.653 790.352 237.092 790.022 237.755 790.007 238.463L790.007 243 808.007 243 808.007 238.46C807.992 237.754 807.663 237.091 807.109 236.653ZM806.009 241 792.009 241 792.009 238.5C792.011 238.398 792.055 238.301 792.131 238.233 793.264 237.42 794.524 236.803 795.861 236.407 796.889 236.107 797.953 235.946 799.024 235.928 800.079 235.931 801.127 236.09 802.135 236.4L802.212 236.422C803.54 236.769 804.785 237.379 805.872 238.217 805.949 238.275 805.999 238.362 806.012 238.458Z"/><path d="M814.4 228.142C814.399 230.65 816.432 232.683 818.94 232.684 821.448 232.685 823.482 230.652 823.482 228.144 823.483 225.636 821.45 223.603 818.942 223.602 818.942 223.602 818.941 223.602 818.941 223.602 816.434 223.603 814.401 225.635 814.4 228.142ZM821.481 228.142C821.482 229.545 820.344 230.683 818.941 230.684 817.538 230.685 816.4 229.547 816.399 228.144 816.398 226.741 817.536 225.603 818.939 225.602 818.94 225.602 818.94 225.602 818.941 225.602 820.343 225.604 821.479 226.74 821.481 228.142Z"/><path d="M827.112 236.653C825.807 235.647 824.314 234.913 822.721 234.493 821.519 234.124 820.269 233.935 819.011 233.933 817.754 233.952 816.506 234.14 815.3 234.493 813.725 234.959 812.24 235.689 810.91 236.653 810.354 237.091 810.024 237.755 810.01 238.463L810.01 243 828.01 243 828.01 238.46C827.995 237.754 827.666 237.091 827.112 236.653ZM826.012 241 812.012 241 812.012 238.5C812.014 238.398 812.057 238.301 812.133 238.233 813.266 237.421 814.527 236.803 815.864 236.407 816.892 236.107 817.956 235.946 819.027 235.928 820.081 235.931 821.129 236.09 822.137 236.4L822.214 236.422C823.542 236.769 824.787 237.38 825.875 238.217 825.952 238.275 826.002 238.362 826.015 238.458Z"/><path d="M762 173C762 171.895 762.895 171 764 171L815 171C816.105 171 817 171.895 817 173L817 207C817 208.105 816.105 209 815 209L781.163 209 779.952 211 815 211C817.209 211 819 209.209 819 207L819 173C819 170.791 817.209 169 815 169L764 169C761.791 169 760 170.791 760 173L760 177.033C760.679 177.079 761.349 177.203 762 177.401Z"/><path d="M771.9 207.131C772.285 207.177 772.661 206.997 772.867 206.669L777.159 199.823C777.628 199.081 778.61 198.859 779.352 199.328 779.378 199.344 779.403 199.361 779.427 199.378 780.118 199.936 780.263 200.932 779.759 201.664L774.52 210.317C773.987 211.197 772.859 211.506 771.951 211.023 771.463 210.763 770.858 210.948 770.598 211.436 770.338 211.924 770.523 212.529 771.011 212.789 772.856 213.771 775.147 213.141 776.23 211.353L781.459 202.717C782.278 201.451 782.253 199.816 781.394 198.577L794.076 185.658C794.457 185.258 794.442 184.625 794.042 184.244 793.65 183.871 793.032 183.877 792.648 184.258L779.807 197.338C779.172 197.085 778.478 197.019 777.807 197.149 776.839 197.343 775.993 197.923 775.464 198.756L772.3 203.805 770.453 198.217 770.388 198.063C768.9 194.647 765.355 194 759.344 194 753.333 194 749.792 194.647 748.292 198.073 748.292 198.073 748.252 198.157 748.232 198.214 748.206 198.282 748.185 198.353 748.169 198.424L744.678 217.509C744.261 219.283 745.361 221.06 747.135 221.477 747.216 221.495 747.297 221.511 747.378 221.524L747.678 221.571C747.73 221.579 747.783 221.583 747.836 221.583 748.388 221.566 748.822 221.104 748.805 220.553 748.79 220.082 748.449 219.685 747.986 219.6L747.686 219.552C747.328 219.497 747.011 219.294 746.81 218.993 746.602 218.677 746.538 218.288 746.635 217.922L750.116 198.896 750.127 198.868C750.942 197.007 752.651 196 759.344 196 766.037 196 767.744 197.007 768.553 198.851L771.071 206.451C771.192 206.819 771.515 207.084 771.9 207.131Z"/><path d="M766 203.42C765.448 203.42 765 203.868 765 204.42L765 245 760.5 245 760.5 220.148 758.5 220.148 758.5 245 754 245 754 204.42C754 203.868 753.552 203.42 753 203.42 752.448 203.42 752 203.868 752 204.42L752 247 767 247 767 204.42C767 203.868 766.552 203.42 766 203.42Z"/><path d="M759.344 192C762.658 192 765.344 189.314 765.344 186 765.344 182.686 762.658 180 759.344 180 756.03 180 753.344 182.686 753.344 186 753.348 189.312 756.032 191.996 759.344 192ZM759.344 182C761.553 182 763.344 183.791 763.344 186 763.344 188.209 761.553 190 759.344 190 757.135 190 755.344 188.209 755.344 186 755.344 183.791 757.135 182 759.344 182Z"/></g></svg>