<svg width="51" height="51" xmlns="http://www.w3.org/2000/svg" xmlns:xlink="http://www.w3.org/1999/xlink" overflow="hidden"><defs><clipPath id="clip0"><rect x="53" y="731" width="51" height="51"/></clipPath></defs><g clip-path="url(#clip0)" transform="translate(-53 -731)"><path d="M98.3688 762.184 98.3688 758.412C98.3688 755.862 94.2781 754.162 89.3375 753.472L89.3375 750.444C89.3375 749.594 88.8594 748.425 86.6813 747.309L86.6813 743.537C86.6813 740.084 79.2969 738.225 72.3375 738.225 65.3781 738.225 57.9938 740.084 57.9938 743.537L57.9938 747.787C57.9938 749.062 59.0031 750.125 60.65 750.975L60.65 754.694C60.65 754.694 60.65 754.694 60.65 754.747 58.4719 755.862 57.9938 757.084 57.9938 757.881L57.9938 762.131C57.9938 765.584 65.3781 767.444 72.3375 767.444L72.3375 769.569C72.3375 773.022 79.7219 774.881 86.6813 774.881 93.6406 774.881 101.025 773.022 101.025 769.569L101.025 765.319C101.025 764.522 100.547 763.3 98.3688 762.184ZM99.9625 765.372C99.9625 767.391 94.4906 769.622 86.6813 769.622 80.4656 769.622 75.7375 768.188 74.0375 766.594 74.0375 766.594 74.0375 766.594 74.0375 766.594 77.2781 767.603 80.625 768.081 83.9719 768.028 90.4531 768.028 97.3594 766.381 98.2094 763.406 99.3781 763.991 99.9625 764.681 99.9625 765.372ZM90.9313 770.419 90.9313 773.606C90.2406 773.659 89.55 773.766 88.8063 773.766L88.8063 770.578C89.55 770.578 90.2406 770.525 90.9313 770.419ZM91.9938 770.312C92.7375 770.206 93.4281 770.1 94.1188 769.941L94.1188 773.075C93.4812 773.234 92.7375 773.341 91.9938 773.447L91.9938 770.312ZM95.1813 769.675C95.925 769.516 96.6156 769.25 97.3063 768.984L97.3063 772.066C96.6156 772.384 95.925 772.597 95.1813 772.809L95.1813 769.675ZM78.1813 772.809C77.4375 772.597 76.7469 772.384 76.0563 772.066L76.0563 768.984C76.7469 769.25 77.4375 769.463 78.1813 769.675L78.1813 772.809ZM79.2438 769.941C79.9344 770.1 80.625 770.206 81.3688 770.312L81.3688 773.5C80.625 773.394 79.8812 773.234 79.2438 773.128L79.2438 769.941ZM82.4313 770.419C83.1219 770.472 83.8656 770.578 84.5563 770.578L84.5563 773.766C83.8125 773.713 83.1219 773.659 82.4313 773.606L82.4313 770.419ZM69.6813 758.466 69.6813 758.625C68.9375 758.519 68.1937 758.359 67.5563 758.253L67.5563 755.119C68.2469 755.278 68.9375 755.384 69.6813 755.491L69.6813 758.466ZM70.7438 762.716 70.7438 760.591C71.2219 761.016 71.7531 761.388 72.3375 761.653L72.3375 764.681C71.3281 763.991 70.7438 763.353 70.7438 762.716L70.7438 762.716ZM97.3063 762.716C97.3063 763.353 96.7219 764.044 95.7125 764.628L95.7125 761.6C96.2969 761.334 96.8281 760.963 97.3063 760.537L97.3063 762.716ZM94.65 765.159C93.9594 765.478 93.2688 765.691 92.525 765.903L92.525 762.769C93.2688 762.609 93.9594 762.344 94.65 762.078L94.65 765.159ZM91.4625 766.169C90.825 766.328 90.0813 766.434 89.3375 766.541L89.3375 763.353C90.0813 763.247 90.7719 763.141 91.4625 762.981L91.4625 766.169ZM88.275 766.7C87.5844 766.753 86.8938 766.859 86.15 766.859L86.15 763.672C86.8406 763.619 87.5844 763.566 88.275 763.513L88.275 766.7ZM85.0875 766.912C84.7156 766.912 84.3969 766.912 84.025 766.912 83.6531 766.912 83.3344 766.912 82.9625 766.912L82.9625 763.725C83.3344 763.725 83.6531 763.725 84.025 763.725 84.3969 763.725 84.7156 763.725 85.0875 763.725L85.0875 766.912ZM81.9 766.912C81.1562 766.859 80.4656 766.806 79.775 766.753L79.775 763.566C80.4656 763.619 81.2094 763.725 81.9 763.725L81.9 766.912ZM78.7125 766.594C77.9688 766.487 77.225 766.328 76.5875 766.222L76.5875 763.088C77.2781 763.247 77.9688 763.353 78.7125 763.459L78.7125 766.594ZM75.525 765.903C74.7812 765.691 74.0906 765.478 73.4 765.159L73.4 762.078C74.0906 762.344 74.7812 762.556 75.525 762.769L75.525 765.903ZM97.3063 758.466C97.3063 760.484 91.8344 762.716 84.025 762.716 76.2156 762.716 70.7438 760.484 70.7438 758.466 70.7438 756.447 76.2156 754.216 84.025 754.216 91.8344 754.216 97.3063 756.447 97.3063 758.466ZM70.7438 756.341 70.7438 755.544C71.0625 755.597 71.3812 755.597 71.7 755.65 71.3812 755.862 71.0625 756.075 70.7438 756.341ZM87.3719 753.259C87.6906 753.047 88.0094 752.834 88.3281 752.569L88.3281 753.366C87.9563 753.312 87.6906 753.312 87.3719 753.259ZM86.575 748.478C87.6906 749.116 88.275 749.806 88.275 750.444 88.275 751.347 87.1062 752.356 85.1406 753.1 84.7688 753.1 84.3969 753.1 84.025 753.1 80.3063 753.1 76.4281 753.631 73.6656 754.694 68.0875 754.534 63.9437 753.206 62.4031 751.719 62.4031 751.719 62.4031 751.719 62.4031 751.719 65.6438 752.728 68.9906 753.206 72.3375 753.153 78.8187 753.153 85.725 751.506 86.575 748.478ZM66.4938 754.8 66.4938 757.934C65.75 757.722 65.0594 757.509 64.3688 757.191L64.3688 754.109C65.0594 754.375 65.8031 754.641 66.4938 754.8ZM63.3063 753.631 63.3063 756.659C62.2969 756.022 61.7125 755.384 61.7125 754.747L61.7125 752.622C62.1906 752.994 62.7219 753.366 63.3063 753.631ZM61.7125 750.284 61.7125 747.203C62.4031 747.469 63.0938 747.681 63.8375 747.894L63.8375 751.028C63.1469 750.816 62.4031 750.603 61.7125 750.284ZM64.9 751.294 64.9 748.159C65.5906 748.319 66.2812 748.425 67.025 748.531L67.025 751.719C66.2812 751.612 65.5906 751.453 64.9 751.294ZM68.0875 751.825 68.0875 748.638C68.7781 748.691 69.5219 748.797 70.2125 748.797L70.2125 751.984C69.4688 751.984 68.7781 751.931 68.0875 751.825ZM71.275 752.037 71.275 748.85C71.6469 748.85 71.9656 748.85 72.3375 748.85 72.7094 748.85 73.0281 748.85 73.4 748.85L73.4 752.037C73.0281 752.037 72.7094 752.037 72.3375 752.037 71.9656 752.037 71.6469 752.091 71.275 752.037ZM74.4625 752.037 74.4625 748.85C75.1531 748.797 75.8969 748.744 76.5875 748.691L76.5875 751.878C75.8969 751.931 75.2063 751.984 74.4625 752.037ZM77.65 751.719 77.65 748.531C78.3938 748.425 79.0844 748.319 79.775 748.159L79.775 751.294C79.1375 751.453 78.3938 751.612 77.65 751.719ZM80.8375 751.028 80.8375 747.894C81.5813 747.734 82.2719 747.469 82.9625 747.203L82.9625 750.284C82.2719 750.603 81.5813 750.816 80.8375 751.028ZM84.025 749.753 84.025 746.725C84.6094 746.459 85.1406 746.088 85.6188 745.662L85.6188 747.787C85.6188 748.478 85.0875 749.116 84.025 749.753ZM60.65 749.753C59.6406 749.116 59.0563 748.478 59.0563 747.841L59.0563 745.716C59.5344 746.141 60.0656 746.513 60.65 746.778L60.65 749.753ZM59.0563 743.591C59.0563 741.572 64.5281 739.341 72.3375 739.341 80.1469 739.341 85.6188 741.572 85.6188 743.591 85.6188 745.609 80.1469 747.841 72.3375 747.841 64.5281 747.841 59.0563 745.556 59.0563 743.591ZM60.9156 755.809C61.8719 757.775 65.4844 759.05 69.6813 759.634L69.6813 762.025C63.3063 761.6 59.0563 759.634 59.0563 757.881 59.0563 757.191 59.7469 756.5 60.9156 755.809ZM60.65 764.097C59.6406 763.459 59.0563 762.822 59.0563 762.184L59.0563 760.059C59.5344 760.484 60.0656 760.856 60.65 761.122L60.65 764.097ZM63.8375 765.372C63.0938 765.159 62.4031 764.947 61.7125 764.628L61.7125 761.547C62.4031 761.812 63.0938 762.025 63.8375 762.237L63.8375 765.372ZM67.025 766.062C66.2812 765.956 65.5375 765.797 64.9 765.691L64.9 762.556C65.5906 762.716 66.2812 762.822 67.025 762.928L67.025 766.062ZM68.0875 762.981C68.6188 763.034 69.15 763.088 69.7344 763.141 69.7875 763.513 70 763.884 70.2125 764.256L70.2125 766.381C69.4688 766.328 68.7781 766.275 68.0875 766.222L68.0875 762.981ZM71.275 765.213C71.5938 765.425 71.9656 765.638 72.3375 765.85L72.3375 766.381C71.9656 766.381 71.6469 766.381 71.275 766.381L71.275 765.213ZM73.4 769.622 73.4 767.497C73.8781 767.922 74.4094 768.294 74.9938 768.559L74.9938 771.588C73.9844 770.897 73.4 770.259 73.4 769.622L73.4 769.622ZM85.6188 770.631C85.9906 770.631 86.3094 770.631 86.6813 770.631 87.0531 770.631 87.3719 770.631 87.7438 770.631L87.7438 773.819C87.3719 773.819 87.0531 773.819 86.6813 773.819 86.3094 773.819 85.9906 773.819 85.6188 773.819L85.6188 770.631ZM98.3688 768.506C98.9531 768.241 99.4844 767.869 99.9625 767.444L99.9625 769.569C99.9625 770.206 99.3781 770.897 98.3688 771.481L98.3688 768.506Z" fill="#FFFFFF"/></g></svg>