<svg version="1.1" id="Layer_1" xmlns="http://www.w3.org/2000/svg" xmlns:xlink="http://www.w3.org/1999/xlink" 
	 width="700pt" height="700pt" viewBox="0 0 875 875" enable-background="new 0 0 875 875" xml:space="preserve">
<path fill="#FFFFFF" opacity="1.000000" stroke="none" 
	d="
M498.292267,60.788582 
	C506.881073,67.606255 512.660034,76.232704 516.785217,85.727097 
	C521.476929,96.525345 523.963501,108.039925 522.947876,119.933327 
	C521.585632,135.885742 516.355103,150.253708 505.878479,162.789307 
	C495.042480,175.754852 481.375153,183.406509 465.238708,187.391068 
	C456.935852,189.441299 456.772491,189.632248 457.045044,198.267471 
	C457.555634,214.442169 458.324249,230.608841 459.006012,246.777969 
	C459.311859,254.030869 459.786560,261.278992 459.949951,268.534546 
	C460.032349,272.192902 460.831085,274.025238 465.196625,274.115082 
	C485.208130,274.527008 503.003601,281.666626 518.883057,293.480865 
	C533.698425,304.503418 544.283264,318.990967 551.438965,336.324402 
	C561.956726,332.552765 572.164917,328.815521 582.427368,325.233795 
	C592.546387,321.702087 602.720398,318.327850 612.727417,314.932983 
	C608.259521,292.012665 611.747742,271.265411 625.850403,252.546951 
	C637.294373,237.357269 652.700867,228.446457 670.877625,225.256363 
	C693.981628,221.201553 714.808228,227.101456 732.647766,243.016998 
	C745.748413,254.704727 753.677002,269.194946 755.746155,286.301331 
	C757.214417,298.439667 756.046204,310.688171 751.258911,322.425201 
	C742.000000,345.124908 725.601074,359.804749 702.195007,366.230652 
	C680.001343,372.323700 659.333618,368.312714 640.401062,354.999786 
	C631.984802,349.081604 625.425415,341.709045 620.309021,332.879700 
	C619.223633,331.006622 618.116333,329.231812 615.015686,330.360352 
	C598.462708,336.385254 581.810547,342.137299 565.208862,348.029266 
	C562.203308,349.095917 559.272888,350.374207 556.281433,351.565277 
	C559.068848,365.391327 559.197754,379.277069 556.400085,393.323212 
	C553.248291,409.147705 546.666016,423.354858 536.524353,435.632172 
	C530.876709,442.469116 523.668457,448.053833 516.915710,453.917480 
	C514.995911,455.584473 514.715759,456.352203 516.017395,458.636749 
	C523.814941,472.323090 531.353455,486.156830 538.998840,499.930054 
	C541.958862,505.262543 544.971375,510.565918 547.935730,515.839478 
	C567.325073,511.813385 585.734070,513.380371 602.893127,523.045288 
	C618.002136,531.555542 628.822632,544.069092 634.954407,560.317505 
	C649.423401,598.658813 630.781128,637.809204 597.651062,653.021667 
	C562.880554,668.987427 522.323792,656.253296 503.075256,623.166504 
	C487.429901,596.273315 487.670868,546.351868 533.311462,521.251526 
	C527.447693,510.597412 521.568237,499.946442 515.720215,489.278290 
	C511.780518,482.091431 507.932556,474.853882 503.946198,467.693207 
	C502.377686,464.875671 500.677155,463.140198 496.721924,464.884003 
	C482.249146,471.264740 466.872986,473.192749 451.260284,471.893433 
	C434.002930,470.457245 417.787415,465.406921 403.596008,455.051056 
	C399.919220,452.367981 396.686615,449.044250 392.880676,446.586700 
	C391.482025,445.683502 388.155853,445.571167 387.165985,446.558685 
	C372.704163,460.986053 358.453705,475.626801 344.316223,490.373260 
	C343.575500,491.145966 343.674500,493.804260 344.427673,494.767303 
	C356.513367,510.220184 361.072968,528.122253 358.757690,547.034363 
	C355.128296,576.681091 338.666840,597.831726 310.396606,607.521667 
	C286.929016,615.565308 263.570038,612.527954 243.277649,597.483154 
	C227.215240,585.574585 217.873047,569.193970 214.832245,548.987915 
	C212.125412,531.001160 216.023422,514.586670 225.290619,499.688416 
	C235.822067,482.757690 251.496521,472.179901 271.201477,468.001862 
	C291.369019,463.725800 310.075958,467.351837 327.190582,478.756409 
	C330.359375,480.868011 332.264923,480.436279 334.780182,477.813263 
	C349.379272,462.589020 364.127777,447.508057 379.173035,432.021149 
	C369.763611,419.720764 363.687836,405.553101 361.172455,390.235687 
	C358.612000,374.644043 359.064697,358.931183 364.393494,343.387238 
	C331.499207,332.450867 298.938782,321.719696 266.473999,310.706451 
	C262.640259,309.405884 260.783020,310.187317 259.045288,313.479767 
	C247.920090,334.558380 230.837967,347.820953 207.227692,351.975220 
	C173.870148,357.844604 143.950546,342.814026 128.671310,313.100769 
	C115.369431,287.232880 119.632240,254.579117 138.617157,232.705734 
	C150.395401,219.135468 165.087631,210.839783 182.363159,208.243088 
	C205.055954,204.832077 225.601364,210.575729 242.996368,226.403366 
	C255.942108,238.182663 264.042908,252.393311 265.895477,269.777008 
	C266.649139,276.848694 266.162048,284.072388 265.939575,291.217590 
	C265.861572,293.722748 266.512421,295.200806 268.860291,295.975250 
	C301.444946,306.723450 334.056641,317.391693 366.564301,328.368134 
	C369.971375,329.518555 370.522430,327.890991 371.630280,325.839539 
	C384.067841,302.809204 402.725372,287.125641 427.556183,278.926849 
	C433.481812,276.970245 439.649628,275.747040 445.000000,274.368439 
	C445.000000,268.954895 445.157074,263.404266 444.970947,257.865143 
	C444.382660,240.359329 443.698486,222.856461 442.975525,205.355591 
	C442.799652,201.097260 442.052856,196.848343 442.091980,192.599930 
	C442.121216,189.421768 440.835876,188.381210 437.933502,187.961548 
	C415.371399,184.699310 398.344574,173.053360 386.314789,153.793518 
	C377.412476,139.540802 374.662415,123.832977 376.141052,107.487335 
	C377.410522,93.454117 382.892609,80.902283 391.699493,69.648643 
	C402.708740,55.580807 417.166718,46.967361 434.185211,43.572010 
	C457.902679,38.840141 479.660004,43.922848 498.292267,60.788582 
M451.914429,450.972229 
	C460.849030,450.728851 469.644470,451.132812 478.558624,448.289673 
	C487.830017,445.332520 496.409576,441.886536 504.535828,436.352509 
	C518.375000,426.928009 528.108826,414.222076 533.634155,399.045441 
	C538.894897,384.595551 538.748718,368.938568 535.183838,353.952820 
	C533.370789,346.331207 529.102844,339.229584 525.511047,332.111633 
	C521.287231,323.741028 514.643799,317.348938 507.238831,311.759430 
	C496.170227,303.404480 483.772888,297.720978 470.035095,296.154236 
	C455.582703,294.505951 441.392639,296.652222 427.929993,302.546783 
	C426.901001,302.997284 425.797729,303.379395 424.911743,304.038818 
	C418.751373,308.623901 412.600800,313.224030 406.521637,317.915863 
	C399.054413,323.678955 394.981995,331.872406 390.426880,339.859955 
	C385.087555,349.222748 383.919556,359.730774 382.472656,369.788879 
	C381.347015,377.613495 383.549286,386.304840 385.888489,394.127747 
	C388.104889,401.539978 392.210602,408.436127 395.867188,415.357574 
	C401.594635,426.198822 410.919861,433.534973 421.007965,439.986176 
	C430.190308,445.858246 440.600830,448.338623 451.914429,450.972229 
M294.550690,596.003845 
	C296.616547,595.665161 298.728638,595.499573 300.741241,594.961609 
	C328.187195,587.624512 347.832275,559.628357 343.061066,530.944519 
	C339.438995,509.169006 327.699005,493.633087 307.508057,485.343994 
	C285.443542,476.285797 264.476746,480.063446 246.926071,495.901154 
	C228.756653,512.297119 223.405029,533.525269 230.579758,556.830688 
	C236.276962,575.336792 249.252274,587.787598 267.780579,593.974670 
	C276.185486,596.781250 284.777954,598.447754 294.550690,596.003845 
M516.961853,615.586487 
	C527.657288,635.769592 554.144348,647.216370 575.651428,643.148010 
	C593.147461,639.838440 606.780701,630.980774 615.812012,616.176270 
	C630.507751,592.086365 625.967957,560.385132 603.621399,542.037292 
	C587.031006,528.415588 568.623108,524.353149 548.266724,531.089905 
	C531.040527,536.790771 518.822327,548.329163 512.361084,565.360291 
	C508.777557,574.805969 506.441254,584.758240 509.127747,594.840149 
	C510.962036,601.723877 513.992065,608.289001 516.961853,615.586487 
M645.576660,250.951477 
	C642.371765,254.486603 638.719360,257.714294 636.041748,261.611664 
	C626.032349,276.181335 622.266846,292.070526 626.997009,309.503693 
	C630.147400,321.114502 636.135193,330.910797 645.279175,338.799316 
	C660.531799,351.957825 677.893372,355.939087 697.407532,351.192566 
	C709.607666,348.225098 719.425598,341.611176 727.406799,332.087189 
	C739.703003,317.414307 743.792114,300.535126 739.432190,282.069702 
	C736.181824,268.303101 728.795959,256.791779 716.986877,248.466660 
	C702.926331,238.554367 687.684448,234.839905 670.627808,238.679337 
	C661.453796,240.744385 653.631042,245.202911 645.576660,250.951477 
M231.324966,236.027924 
	C218.160065,226.453308 203.838364,220.042191 187.234039,223.198013 
	C179.195557,224.725800 170.887207,227.193314 163.867142,231.252197 
	C146.721420,241.165634 137.431900,256.974609 136.176727,276.574677 
	C134.868195,297.007874 142.782944,313.925598 159.120636,326.620148 
	C172.076950,336.687378 187.145294,340.079071 202.852676,337.711670 
	C216.952209,335.586639 229.086349,328.610840 238.425537,317.190704 
	C246.815765,306.931000 251.490479,295.335083 251.922180,282.237762 
	C252.526031,263.917419 244.859741,248.964081 231.324966,236.027924 
M421.041138,165.554062 
	C423.053528,166.562119 425.028381,167.655090 427.084564,168.564087 
	C438.187836,173.472610 449.750702,175.300583 461.669525,172.654739 
	C474.914001,169.714600 486.104370,163.162979 494.910065,152.631454 
	C507.678986,137.359940 511.036499,119.780426 506.287140,101.009033 
	C503.004486,88.034744 495.821747,77.308228 484.228729,69.304405 
	C470.776672,60.017097 456.744171,56.335361 440.607117,58.910526 
	C411.414032,63.569206 390.739471,91.040535 392.863068,119.310562 
	C394.381042,139.517670 404.155762,154.099838 421.041138,165.554062 
z"/>
<path fill="#FFFFFF" opacity="1.000000" stroke="none" 
	d="
M442.000885,361.190063 
	C442.821014,356.297943 445.413086,354.451508 449.991058,354.944427 
	C452.787781,355.245544 455.643311,354.999481 458.472443,355.000061 
	C465.517670,355.001556 466.998810,356.445923 466.999542,363.327179 
	C467.001099,377.805634 467.000000,392.284119 467.000000,406.762573 
	C467.000000,408.389191 467.000000,410.015778 467.000000,412.000000 
	C468.504639,412.000000 469.623077,412.001678 470.741516,411.999664 
	C474.520599,411.992828 478.151031,411.970673 478.045685,417.430511 
	C477.947327,422.525085 475.178528,425.876160 470.184662,425.969238 
	C463.530212,426.093292 456.871155,426.053772 450.215149,425.982239 
	C445.275482,425.929169 441.905853,422.487610 442.000122,417.788696 
	C442.093658,413.128296 443.581177,412.054169 450.022858,412.000671 
	C450.837067,411.993927 451.651398,411.999786 452.732727,411.999786 
	C452.732727,397.749847 452.732727,383.674408 452.732727,369.903259 
	C449.570496,368.819122 446.261444,368.095978 443.440735,366.506256 
	C442.378296,365.907501 442.447052,363.301453 442.000885,361.190063 
z"/>
<path fill="#FFFFFF" opacity="1.000000" stroke="none" 
	d="
M469.809998,325.319061 
	C474.631104,331.405518 473.558441,340.709869 467.875702,344.639130 
	C462.895630,348.082520 452.319641,345.667908 449.112122,340.355286 
	C446.150391,335.449738 448.440247,325.862061 453.442810,322.222809 
	C457.093842,319.566772 465.450409,321.024261 469.809998,325.319061 
z"/>
</svg>