<svg width="46" height="45" xmlns="http://www.w3.org/2000/svg" xmlns:xlink="http://www.w3.org/1999/xlink" overflow="hidden"><defs><clipPath id="clip0"><rect x="56" y="377" width="46" height="45"/></clipPath></defs><g clip-path="url(#clip0)" transform="translate(-56 -377)"><path d="M34.6875 11.25C29.0117 11.258 24.033 15.0378 22.5 20.5027 20.967 15.0378 15.9883 11.258 10.3125 11.25L5.36156 11.25C5.35898 11.25 5.35692 11.2478 5.35692 11.2453 5.35697 11.244 5.35744 11.2429 5.35828 11.242L11.5814 5.01891C11.7613 4.83267 11.7561 4.53594 11.5699 4.35609 11.3882 4.18065 11.1002 4.18065 10.9186 4.35609L3.88734 11.3873C3.70405 11.5702 3.70368 11.867 3.8865 12.0502 3.88679 12.0505 3.88706 12.0508 3.88734 12.0511L10.9186 19.0823C11.1048 19.2622 11.4015 19.257 11.5814 19.0708 11.7569 18.8892 11.7569 18.6012 11.5814 18.4195L5.35828 12.1955C5.35645 12.1936 5.3565 12.1906 5.35833 12.1889 5.35922 12.188 5.36034 12.1875 5.36156 12.1875L10.3125 12.1875C16.7816 12.1947 22.024 17.4372 22.0312 23.9062L22.0312 40.3125C22.0312 40.5714 22.2411 40.7812 22.5 40.7812 22.7589 40.7812 22.9688 40.5714 22.9688 40.3125L22.9688 23.9062C22.976 17.4372 28.2184 12.1947 34.6875 12.1875L39.6384 12.1875C39.641 12.1875 39.6431 12.1897 39.6431 12.1922 39.643 12.1935 39.6426 12.1946 39.6417 12.1955L33.4186 18.4186C33.2324 18.5985 33.2272 18.8952 33.4071 19.0814 33.5869 19.2676 33.8837 19.2728 34.0699 19.0929 34.0738 19.0891 34.0777 19.0853 34.0814 19.0814L41.1127 12.0502C41.2959 11.8673 41.2963 11.5705 41.1135 11.3873 41.1132 11.387 41.1129 11.3867 41.1127 11.3864L34.0814 4.35516C33.8952 4.17531 33.5984 4.18046 33.4186 4.36668 33.2431 4.54833 33.2431 4.83633 33.4186 5.01797L39.6417 11.242C39.6435 11.2439 39.6435 11.2469 39.6417 11.2486 39.6408 11.2495 39.6397 11.25 39.6384 11.25Z" fill="#A66EAA" transform="matrix(1.02222 0 0 1 56 377)"/></g></svg>