<svg width="61" height="41" xmlns="http://www.w3.org/2000/svg" xmlns:xlink="http://www.w3.org/1999/xlink" overflow="hidden"><defs><clipPath id="clip0"><rect x="51" y="662" width="61" height="41"/></clipPath></defs><g clip-path="url(#clip0)" transform="translate(-51 -662)"><path d="M58.7813 25.0657 51.6468 13.1958 51.0154 12.1225 49.942 12.817 45.1436 15.7845C44.5753 16.1002 44.1334 16.6684 43.9439 17.2998 43.8177 17.7417 43.8177 18.2468 44.0071 18.6888 42.6812 19.1308 41.3553 19.3833 39.9663 19.3833 38.0721 19.3202 36.178 19.0045 34.347 18.4363 33.4631 18.1837 32.516 17.9943 31.5689 17.8049L31.4426 17.8049 31.4426 17.8049C31.3795 17.8049 31.3164 17.8049 31.3164 17.8049L31.1901 17.8049 31.0638 17.8049C30.9375 17.8049 30.8744 17.8049 30.7481 17.8049L30.7481 17.8049C29.6748 17.8049 28.6014 18.2468 27.9069 19.0676L27.4018 19.6359C26.581 19.3202 25.6971 19.1308 24.8132 19.1308 24.6238 19.1308 24.4975 19.1308 24.3081 19.1308 23.9292 19.1308 23.6136 19.1939 23.2347 19.1939 22.4139 19.257 21.5931 19.3202 20.7724 19.3202 19.3833 19.3833 17.9943 19.0676 16.7315 18.4994 16.7947 18.1206 16.7947 17.7417 16.7315 17.2998 16.5421 16.6684 16.1002 16.1002 15.5319 15.7845L10.7966 12.817 9.72323 12.1225 9.09185 13.1958 1.831 25.0657 1.19962 26.1391 2.27296 26.7704 7.13458 29.7379C8.01851 30.3062 9.09185 30.243 9.91264 29.6117L14.0166 34.4101 14.0797 34.5364 14.206 34.5995 14.206 34.5995 13.3221 35.6097C12.1856 36.9356 12.3119 38.8929 13.5746 40.0294L13.5746 40.0294 13.5746 40.0294C14.1429 40.5345 14.8374 40.787 15.595 40.787 15.7213 40.787 15.8476 40.787 15.9739 40.787 16.4158 40.7239 16.7947 40.5976 17.1735 40.3451 17.2366 41.1027 17.6155 41.8604 18.1837 42.3655L18.1837 42.3655 18.1837 42.3655C18.7519 42.8706 19.4465 43.1231 20.2041 43.1231 20.2672 43.1231 20.3935 43.1231 20.4567 43.1231 20.7724 43.1231 21.088 43.06 21.4037 42.9337 21.4669 43.6283 21.7826 44.3228 22.3508 44.7647L22.3508 44.7647 22.3508 44.7647C22.8559 45.2067 23.4873 45.4593 24.1187 45.4593 24.2449 45.4593 24.3081 45.4593 24.4343 45.4593 24.8763 45.4593 25.2551 45.2698 25.634 45.0804 25.7602 45.5224 26.0128 45.9644 26.3916 46.28 26.8967 46.722 27.5281 46.9746 28.2226 46.9114L28.3489 46.9114 28.4752 46.9114C28.854 46.8483 29.2328 46.6589 29.5485 46.4695L29.6117 46.5326 30.4956 47.2271 30.5587 47.2902 30.6219 47.3534C31.1901 47.7322 31.8846 47.9216 32.516 47.9216 32.6423 47.9216 32.7685 47.9216 32.8948 47.9216 34.4733 47.7953 35.736 46.6589 36.178 45.1436 37.567 44.891 38.7035 43.8177 39.0823 42.4286 40.5345 42.1129 41.671 41.0396 41.9867 39.6506 42.0498 39.6506 42.1761 39.6506 42.2392 39.6506 44.2596 39.4612 45.7749 37.6933 45.6487 35.6729 45.6487 35.5466 45.6487 35.3572 45.6487 35.2309L46.1538 34.5995 50.5103 29.5485C51.3311 30.243 52.4675 30.243 53.4146 29.6748L58.2762 26.7073 59.3496 26.0759 58.7813 25.0657ZM7.76596 28.6646 2.90434 25.6971 10.1021 13.8272 14.9005 16.7947C15.4056 17.0472 15.6582 17.6786 15.4688 18.1837L15.0899 18.8151 9.59695 27.9069 9.21813 28.4752C9.02871 28.6646 8.71302 28.7909 8.39733 28.7909 8.20792 28.854 7.95537 28.7909 7.76596 28.6646ZM15.8476 39.5243C15.7845 39.5243 15.7213 39.5243 15.6582 39.5243 14.648 39.5243 13.8272 38.6404 13.8272 37.6302 13.8272 37.1882 14.0166 36.7462 14.2692 36.4305L17.6155 32.6423C17.9943 32.2634 18.4994 32.0109 19.0676 32.0109 19.5096 32.0109 19.9516 32.2003 20.2672 32.4529 21.0249 33.1474 21.1512 34.347 20.4567 35.1046L17.1104 38.8929C16.7947 39.2717 16.3527 39.4612 15.8476 39.5243ZM20.5198 41.9235C20.4567 41.9235 20.3935 41.9235 20.3304 41.9235 19.3202 41.9235 18.4994 41.0396 18.4994 40.0294 18.4994 39.5874 18.6888 39.1455 18.9414 38.8298L21.8457 35.4835C22.2245 35.1046 22.7296 34.8521 23.2979 34.8521 23.7398 34.8521 24.1818 35.0415 24.4975 35.2941 25.2551 35.9886 25.3814 37.1882 24.6869 37.9458L21.7826 41.2922C21.4669 41.671 21.0249 41.9235 20.5198 41.9235L20.5198 41.9235ZM24.4975 44.2596C24.4343 44.2596 24.3712 44.2596 24.3081 44.2596 23.9292 44.2596 23.6136 44.1334 23.2979 43.8808 22.6665 43.3126 22.6033 42.3024 23.1716 41.671L26.0759 38.3247C26.3916 38.009 26.8336 37.8196 27.2756 37.8196 27.6544 37.8196 28.0332 37.9458 28.2858 38.1984 28.9171 38.7666 28.9803 39.7768 28.412 40.4082L25.5077 43.7545C25.2551 44.0702 24.8763 44.2596 24.4975 44.2596L24.4975 44.2596ZM28.3489 45.7749C28.0332 45.7749 27.6544 45.7118 27.4018 45.4593 26.8967 45.0173 26.8336 44.1965 27.2756 43.6914L29.7379 40.8502C29.9905 40.5976 30.3062 40.4082 30.685 40.4082 31.0007 40.4082 31.2532 40.5345 31.5058 40.7239 32.0109 41.1659 32.074 41.9867 31.6321 42.4918L29.1697 45.333C28.9803 45.5855 28.6646 45.7118 28.3489 45.7749L28.3489 45.7749ZM42.2392 38.3878C42.1761 38.3878 42.0498 38.3878 41.9867 38.3878 41.6078 38.3878 41.229 38.2615 40.9133 38.1353 40.9133 38.2615 40.9765 38.3878 40.9765 38.5141 41.1027 39.9031 40.0925 41.1027 38.7035 41.229 38.7035 41.229 38.7035 41.229 38.7035 41.229 38.5141 41.229 38.2615 41.229 38.0721 41.1659L38.0721 41.229C38.1984 42.618 37.1882 43.8177 35.7992 43.9439 35.7992 43.9439 35.7992 43.9439 35.7992 43.9439 35.6097 43.9439 35.3572 43.9439 35.1678 43.8808L35.1678 43.9439C35.2941 45.333 34.2839 46.5326 32.8948 46.6589 32.8948 46.6589 32.8948 46.6589 32.8948 46.6589 32.8317 46.6589 32.7685 46.6589 32.7054 46.6589 32.2634 46.6589 31.8215 46.5326 31.3795 46.28L30.5587 45.6487 32.5791 43.3126C33.4631 42.2392 33.3368 40.6608 32.3266 39.7768 31.8846 39.398 31.3164 39.1455 30.685 39.1455 30.4956 39.1455 30.243 39.1455 30.0536 39.2086 29.9905 38.451 29.6748 37.7564 29.1065 37.2513 28.6014 36.8094 27.9069 36.5568 27.2124 36.5568L27.2124 36.5568C26.8967 36.5568 26.6442 36.62 26.3285 36.6831 26.3285 35.7992 25.9497 34.9784 25.2551 34.347 24.6869 33.8419 23.9924 33.5262 23.2347 33.5893L23.2347 33.5893C22.8559 33.5893 22.4771 33.6525 22.0982 33.7787 22.0351 32.8948 21.6563 32.074 21.0249 31.5058 20.4567 31.0007 19.7621 30.685 19.0045 30.7481L19.0045 30.7481C18.1206 30.7481 17.2366 31.127 16.6053 31.8215L14.9637 33.7156 14.9005 33.6525 10.6072 28.6646 16.1002 19.5727C17.4892 20.2672 19.0676 20.5829 20.6461 20.5198 21.9088 20.5198 23.1716 20.3935 24.3081 20.2672 24.4343 20.2672 24.5606 20.2672 24.6869 20.2672 25.2551 20.2672 25.8234 20.3304 26.3285 20.5198L22.8559 24.6238C22.1614 25.3814 21.8457 26.3916 21.9088 27.4018 21.972 28.412 22.4771 29.296 23.2347 29.9905L23.2347 29.9905 23.2347 29.9905C23.9292 30.5587 24.8132 30.8744 25.6971 30.8744 25.8234 30.8744 25.8865 30.8744 26.0128 30.8744 27.023 30.8113 27.9701 30.3062 28.6014 29.5485L32.8948 24.6238 32.8948 24.6238 33.5893 25.2551 43.7545 33.9682C44.1965 34.347 44.449 34.9784 44.449 35.5466 44.449 35.6097 44.449 35.7992 44.449 35.7992 44.5753 37.1251 43.5651 38.2615 42.2392 38.3878 42.2392 38.3878 42.2392 38.3878 42.2392 38.3878ZM45.333 33.7787C45.1436 33.4631 44.891 33.2105 44.6385 32.958L32.8317 22.7928 27.6544 28.7277C27.2124 29.2328 26.6442 29.5485 25.9497 29.6117 25.8865 29.6117 25.8234 29.6117 25.7602 29.6117 25.1289 29.6117 24.5606 29.3591 24.0555 28.9803 22.9822 28.0963 22.8559 26.581 23.7398 25.5077 23.7398 25.5077 23.803 25.4446 23.803 25.4446L28.7909 19.7621C29.296 19.1939 29.9905 18.9414 30.685 18.9414 30.7481 18.9414 30.8113 18.9414 30.9375 18.9414 31.0638 18.9414 31.127 19.0045 31.2532 19.0045 34.1576 19.5727 36.8094 20.5829 39.9031 20.5829 41.4816 20.5829 43.06 20.3304 44.5122 19.7621L48.1742 25.6971 49.8789 28.5383 45.333 33.7787ZM52.8464 28.6646C52.657 28.7909 52.4044 28.854 52.215 28.854 51.8993 28.854 51.5836 28.7277 51.3311 28.4752L50.9522 27.8438 49.2475 25.0657 45.2698 18.4994C44.891 17.9311 45.0804 17.2366 45.5855 16.8578 45.6487 16.8578 45.6487 16.7947 45.7118 16.7947L50.5734 13.8272 57.708 25.6971 52.8464 28.6646Z" fill="#FFFFFF" transform="matrix(1.0064 0 0 1 51 653.222)"/></g></svg>