<svg width="47" height="47" xmlns="http://www.w3.org/2000/svg" xmlns:xlink="http://www.w3.org/1999/xlink" overflow="hidden"><defs><clipPath id="clip0"><rect x="58" y="448" width="47" height="47"/></clipPath></defs><g clip-path="url(#clip0)" transform="translate(-58 -448)"><path d="M71.9845 479.259 86.812 464.433C88.5525 462.683 90.9208 461.702 93.389 461.708L101.374 461.708C101.376 461.708 101.379 461.711 101.379 461.713 101.378 461.715 101.378 461.716 101.377 461.717L94.8774 468.216C94.6829 468.404 94.6775 468.714 94.8653 468.909 95.0532 469.103 95.3631 469.109 95.5576 468.921 95.5617 468.917 95.5657 468.913 95.5696 468.909L102.913 461.565C103.105 461.374 103.105 461.064 102.913 460.873L95.5696 453.529C95.3751 453.341 95.0652 453.346 94.8774 453.541 94.6941 453.731 94.6941 454.031 94.8774 454.221L101.377 460.721C101.379 460.723 101.379 460.726 101.377 460.728 101.376 460.729 101.375 460.729 101.374 460.729L93.389 460.729C90.6609 460.722 88.0432 461.806 86.1197 463.741L71.2922 478.567C69.5517 480.317 67.1834 481.298 64.7151 481.292L60.4479 481.292C60.1775 481.292 59.9583 481.511 59.9583 481.781 59.9583 482.052 60.1775 482.271 60.4479 482.271L64.7151 482.271C67.4432 482.278 70.0609 481.194 71.9845 479.259Z" stroke="#A66EAA" stroke-width="0.489593" fill="#A66EAA"/><path d="M60.4479 461.708 64.7151 461.708C67.1834 461.702 69.5517 462.683 71.2922 464.433L76.258 469.398C76.4525 469.586 76.7625 469.581 76.9503 469.386 77.1336 469.196 77.1336 468.896 76.9503 468.706L71.9845 463.741C70.0609 461.806 67.4432 460.722 64.7151 460.729L60.4479 460.729C60.1775 460.729 59.9583 460.948 59.9583 461.219 59.9583 461.489 60.1775 461.708 60.4479 461.708Z" stroke="#A66EAA" stroke-width="0.489593" fill="#A66EAA"/><path d="M95.5696 474.091C95.3751 473.904 95.0652 473.909 94.8774 474.103 94.6941 474.293 94.6941 474.594 94.8774 474.784L101.377 481.283C101.379 481.285 101.379 481.288 101.377 481.29 101.376 481.291 101.375 481.292 101.374 481.292L93.3895 481.292C90.9225 481.292 88.5565 480.312 86.812 478.567L81.8461 473.602C81.6516 473.414 81.3417 473.419 81.1539 473.614 80.9706 473.804 80.9706 474.104 81.1539 474.294L86.1197 479.259C88.0432 481.194 90.6609 482.278 93.389 482.271L101.374 482.271C101.376 482.271 101.379 482.273 101.379 482.276 101.378 482.277 101.378 482.278 101.377 482.279L94.8774 488.779C94.6829 488.967 94.6775 489.277 94.8653 489.471 95.0532 489.666 95.3631 489.671 95.5576 489.483 95.5617 489.479 95.5657 489.475 95.5696 489.471L102.913 482.127C103.105 481.936 103.105 481.626 102.913 481.435Z" stroke="#A66EAA" stroke-width="0.489593" fill="#A66EAA"/></g></svg>