<svg width="52" height="51" xmlns="http://www.w3.org/2000/svg" xmlns:xlink="http://www.w3.org/1999/xlink" overflow="hidden"><defs><clipPath id="clip0"><rect x="53" y="301" width="52" height="51"/></clipPath></defs><g clip-path="url(#clip0)" transform="translate(-53 -301)"><path d="M20.7188 27.8651 23.5344 30.4831 27.4885 26.639 29.9625 24.1719 32.785 26.6624 42.3576 17.0861C42.3597 17.084 42.3631 17.084 42.3651 17.0861 42.3661 17.0871 42.3667 17.0884 42.3667 17.0898L42.3667 21.6394 43.4292 21.6394 43.4292 15.2644 37.0685 15.2644 37.0685 16.3269 41.6006 16.3269C41.6035 16.3266 41.6061 16.3288 41.6064 16.3317 41.6065 16.3333 41.606 16.3348 41.6048 16.3359L32.7383 25.203 29.9158 22.7125 26.7458 25.8825 23.5216 29.0169 20.6943 26.3893 12.3973 34.6869 13.1484 35.4381Z" stroke="#FFFFFF" stroke-width="0.53125" fill="#FFFFFF" transform="matrix(1.01961 0 0 1 53 301)"/><path d="M8.52231 42.5 8.52231 7.4375 7.45981 7.4375 7.45981 43.5625 43.5689 43.5625 43.5689 42.5 8.52231 42.5Z" stroke="#FFFFFF" stroke-width="0.53125" fill="#FFFFFF" transform="matrix(1.01961 0 0 1 53 301)"/></g></svg>