<svg width="42" height="42" xmlns="http://www.w3.org/2000/svg" xmlns:xlink="http://www.w3.org/1999/xlink" overflow="hidden"><defs><clipPath id="clip0"><rect x="58" y="163" width="42" height="42"/></clipPath></defs><g clip-path="url(#clip0)" transform="translate(-58 -163)"><path d="M60.8731 185.732 63.712 188.57 65.875 186.522 65.875 200.615 76.8125 200.619 76.8125 189.695 81.1875 189.695 81.1875 200.621 92.125 200.625 92.125 186.503 94.2989 188.56 97.1269 185.732 79 168.512ZM91.25 199.75 82.0625 199.746 82.0625 188.82 75.9375 188.82 75.9375 199.743 66.75 199.74 66.75 185.693 79 174.092 91.25 185.676ZM63.7286 187.35 62.1269 185.75 79 169.718 95.8731 185.75 94.2819 187.339 79 172.887Z" stroke="#FFFFFF" stroke-width="0.437544" fill="#FFFFFF"/></g></svg>