<svg width="96" height="96" xmlns="http://www.w3.org/2000/svg" xmlns:xlink="http://www.w3.org/1999/xlink" xml:space="preserve" overflow="hidden"><defs><clipPath id="clip0"><rect x="175" y="158" width="96" height="96"/></clipPath></defs><g clip-path="url(#clip0)" transform="translate(-175 -158)"><path d="M259 177C259.552 177 260 176.552 260 176 260 175.448 259.552 175 259 175L224 175 224 171C224 170.448 223.552 170 223 170 222.448 170 222 170.448 222 171L222 175 187 175C186.448 175 186 175.448 186 176 186 176.552 186.448 177 187 177L191 177 191 218 187 218C186.448 218 186 218.448 186 219 186 219.552 186.448 220 187 220L220.586 220 202.793 237.793C202.409 238.19 202.42 238.823 202.818 239.207 203.205 239.581 203.82 239.581 204.207 239.207L222 221.414 222 242C222 242.552 222.448 243 223 243 223.552 243 224 242.552 224 242L224 221.414 241.793 239.207C242.19 239.591 242.823 239.58 243.207 239.182 243.581 238.795 243.581 238.18 243.207 237.793L225.414 220 259 220C259.552 220 260 219.552 260 219 260 218.448 259.552 218 259 218L255 218 255 177ZM253 218 193 218 193 177 253 177Z"/><path d="M239 184 231 184 231 212 239 212ZM237 210 233 210 233 186 237 186Z"/><path d="M219 212 227 212 227 193 219 193ZM221 195 225 195 225 210 221 210Z"/><path d="M207 212 215 212 215 200 207 200ZM209 202 213 202 213 210 209 210Z"/></g></svg>