<?xml version="1.0" encoding="UTF-8"?>
<svg xmlns="http://www.w3.org/2000/svg" xmlns:xlink="http://www.w3.org/1999/xlink" width="55px" height="55px" viewBox="0 0 48 48" version="1.1">
<g id="surface1">
<path style=" stroke:none;fill-rule:nonzero;fill:rgb(65.098039%,43.137255%,66.666667%);fill-opacity:1;" d="M 32.449219 22.957031 C 32.433594 22.566406 32.578125 22.1875 32.851562 21.90625 C 33.160156 21.683594 33.5 21.503906 33.855469 21.363281 C 36.527344 20.171875 39.585938 20.1875 42.246094 21.414062 C 42.53125 21.523438 42.800781 21.675781 43.046875 21.859375 C 43.332031 22.15625 43.492188 22.546875 43.5 22.957031 L 43.5 27.976562 C 43.847656 28.238281 44.179688 28.511719 44.5 28.804688 L 44.5 22.957031 C 44.507812 22.277344 44.238281 21.628906 43.753906 21.152344 C 43.425781 20.878906 43.058594 20.660156 42.664062 20.503906 C 39.753906 19.140625 36.394531 19.117188 33.464844 20.441406 C 33.023438 20.613281 32.601562 20.84375 32.21875 21.128906 C 31.710938 21.597656 31.433594 22.265625 31.449219 22.957031 L 31.449219 23.558594 C 31.789062 23.613281 32.121094 23.667969 32.449219 23.726562 Z M 32.449219 22.957031 "/>
<path style=" stroke:none;fill-rule:nonzero;fill:rgb(65.098039%,43.137255%,66.666667%);fill-opacity:1;" d="M 37.976562 18.957031 C 39.910156 18.957031 41.476562 17.386719 41.476562 15.457031 C 41.476562 13.523438 39.910156 11.957031 37.976562 11.957031 C 36.042969 11.957031 34.476562 13.523438 34.476562 15.457031 C 34.464844 17.378906 36.011719 18.945312 37.933594 18.957031 C 37.949219 18.957031 37.964844 18.957031 37.976562 18.957031 Z M 37.976562 12.957031 C 39.355469 12.957031 40.476562 14.074219 40.476562 15.457031 C 40.476562 16.835938 39.359375 17.957031 37.976562 17.957031 C 36.597656 17.957031 35.476562 16.835938 35.476562 15.457031 C 35.476562 14.074219 36.597656 12.957031 37.976562 12.957031 Z M 37.976562 12.957031 "/>
<path style=" stroke:none;fill-rule:nonzero;fill:rgb(65.098039%,43.137255%,66.666667%);fill-opacity:1;" d="M 4.5 22.957031 C 4.503906 22.738281 4.546875 22.523438 4.632812 22.324219 C 4.75 22.046875 4.953125 21.816406 5.21875 21.671875 C 5.421875 21.554688 5.636719 21.449219 5.855469 21.363281 C 8.527344 20.171875 11.585938 20.1875 14.246094 21.414062 C 14.535156 21.523438 14.804688 21.675781 15.046875 21.859375 C 15.332031 22.15625 15.492188 22.546875 15.5 22.957031 L 15.5 23.734375 C 15.828125 23.675781 16.164062 23.621094 16.5 23.566406 L 16.5 22.957031 C 16.492188 22.28125 16.222656 21.636719 15.753906 21.152344 C 15.429688 20.878906 15.058594 20.65625 14.664062 20.503906 C 11.753906 19.140625 8.390625 19.117188 5.464844 20.441406 C 5.03125 20.609375 4.625 20.835938 4.25 21.105469 L 4.171875 21.179688 C 3.722656 21.660156 3.480469 22.300781 3.5 22.957031 L 3.5 28.804688 C 3.820312 28.511719 4.152344 28.238281 4.5 27.980469 Z M 4.5 22.957031 "/>
<path style=" stroke:none;fill-rule:nonzero;fill:rgb(65.098039%,43.137255%,66.666667%);fill-opacity:1;" d="M 24 16.953125 C 25.933594 16.953125 27.5 15.386719 27.5 13.453125 C 27.5 11.523438 25.933594 9.953125 24 9.953125 C 22.066406 9.953125 20.5 11.523438 20.5 13.453125 C 20.488281 15.375 22.035156 16.941406 23.957031 16.953125 C 23.972656 16.953125 23.984375 16.953125 24 16.953125 Z M 24 10.953125 C 25.378906 10.957031 26.5 12.074219 26.5 13.453125 C 26.5 14.835938 25.378906 15.953125 24 15.953125 C 22.621094 15.953125 21.5 14.835938 21.5 13.453125 C 21.5 12.074219 22.621094 10.953125 24 10.953125 Z M 24 10.953125 "/>
<path style=" stroke:none;fill-rule:nonzero;fill:rgb(65.098039%,43.137255%,66.666667%);fill-opacity:1;" d="M 10 18.957031 C 11.933594 18.957031 13.5 17.386719 13.5 15.457031 C 13.5 13.523438 11.933594 11.957031 10 11.957031 C 8.066406 11.957031 6.5 13.523438 6.5 15.457031 C 6.488281 17.378906 8.035156 18.945312 9.957031 18.957031 C 9.972656 18.957031 9.984375 18.957031 10 18.957031 Z M 10 12.957031 C 11.378906 12.957031 12.5 14.074219 12.5 15.457031 C 12.5 16.835938 11.378906 17.957031 10 17.957031 C 8.621094 17.957031 7.5 16.835938 7.5 15.457031 C 7.5 14.074219 8.621094 12.957031 10 12.957031 Z M 10 12.957031 "/>
<path style=" stroke:none;fill-rule:nonzero;fill:rgb(65.098039%,43.137255%,66.666667%);fill-opacity:1;" d="M 18.449219 20.957031 C 18.433594 20.566406 18.578125 20.1875 18.851562 19.90625 C 19.160156 19.683594 19.5 19.503906 19.855469 19.363281 C 22.527344 18.167969 25.585938 18.1875 28.246094 19.414062 C 28.535156 19.523438 28.804688 19.671875 29.046875 19.859375 C 29.332031 20.15625 29.492188 20.546875 29.5 20.957031 L 29.5 23.300781 C 29.835938 23.335938 30.171875 23.378906 30.5 23.421875 L 30.5 20.957031 C 30.492188 20.28125 30.226562 19.632812 29.753906 19.148438 C 29.429688 18.875 29.0625 18.65625 28.664062 18.5 C 25.753906 17.136719 22.394531 17.113281 19.464844 18.4375 C 19.023438 18.613281 18.605469 18.84375 18.21875 19.125 C 17.710938 19.597656 17.429688 20.261719 17.449219 20.957031 L 17.449219 23.429688 C 17.78125 23.382812 18.113281 23.34375 18.449219 23.304688 Z M 18.449219 20.957031 "/>
<path style=" stroke:none;fill-rule:nonzero;fill:rgb(65.098039%,43.137255%,66.666667%);fill-opacity:1;" d="M 24 24 C 11.664062 24 2 28.28125 2 33.75 C 2 39.21875 11.664062 43.5 24 43.5 C 36.335938 43.5 46 39.21875 46 33.75 C 46 28.28125 36.335938 24 24 24 Z M 24 42.5 C 12.617188 42.5 3 38.492188 3 33.75 C 3 29.007812 12.617188 25 24 25 C 35.382812 25 45 29.007812 45 33.75 C 45 38.492188 35.382812 42.5 24 42.5 Z M 24 42.5 "/>
</g>
</svg>
