<?xml version="1.0" encoding="UTF-8"?>
<svg xmlns="http://www.w3.org/2000/svg" xmlns:xlink="http://www.w3.org/1999/xlink" width="55px" height="55px" viewBox="0 0 48 48" version="1.1">
<g id="surface1">
<path style="fill-rule:nonzero;fill:rgb(65.098039%,43.137255%,66.666667%);fill-opacity:1;stroke-width:1;stroke-linecap:butt;stroke-linejoin:miter;stroke:rgb(65.098039%,43.137255%,66.666667%);stroke-opacity:1;stroke-miterlimit:4;" d="M 80.007812 244.5 L 80.007812 238.5 L 74.007812 238.5 L 74.007812 244.5 Z M 76.007812 240.5 L 78.007812 240.5 L 78.007812 242.5 L 76.007812 242.5 Z M 76.007812 240.5 " transform="matrix(0.5,0,0,0.5,-10,-85)"/>
<path style="fill-rule:nonzero;fill:rgb(65.098039%,43.137255%,66.666667%);fill-opacity:1;stroke-width:1;stroke-linecap:butt;stroke-linejoin:miter;stroke:rgb(65.098039%,43.137255%,66.666667%);stroke-opacity:1;stroke-miterlimit:4;" d="M 97.007812 244.5 L 97.007812 238.5 L 91.007812 238.5 L 91.007812 244.5 Z M 93.007812 240.5 L 95.007812 240.5 L 95.007812 242.5 L 93.007812 242.5 Z M 93.007812 240.5 " transform="matrix(0.5,0,0,0.5,-10,-85)"/>
<path style="fill-rule:nonzero;fill:rgb(65.098039%,43.137255%,66.666667%);fill-opacity:1;stroke-width:1;stroke-linecap:butt;stroke-linejoin:miter;stroke:rgb(65.098039%,43.137255%,66.666667%);stroke-opacity:1;stroke-miterlimit:4;" d="M 33.007812 244.5 L 39.007812 244.5 L 39.007812 238.5 L 33.007812 238.5 Z M 35.007812 240.5 L 37.007812 240.5 L 37.007812 242.5 L 35.007812 242.5 Z M 35.007812 240.5 " transform="matrix(0.5,0,0,0.5,-10,-85)"/>
<path style="fill-rule:nonzero;fill:rgb(65.098039%,43.137255%,66.666667%);fill-opacity:1;stroke-width:1;stroke-linecap:butt;stroke-linejoin:miter;stroke:rgb(65.098039%,43.137255%,66.666667%);stroke-opacity:1;stroke-miterlimit:4;" d="M 56.007812 238.5 L 50.007812 238.5 L 50.007812 244.5 L 56.007812 244.5 Z M 54.007812 242.5 L 52.007812 242.5 L 52.007812 240.5 L 54.007812 240.5 Z M 54.007812 242.5 " transform="matrix(0.5,0,0,0.5,-10,-85)"/>
<path style="fill-rule:nonzero;fill:rgb(65.098039%,43.137255%,66.666667%);fill-opacity:1;stroke-width:1;stroke-linecap:butt;stroke-linejoin:miter;stroke:rgb(65.098039%,43.137255%,66.666667%);stroke-opacity:1;stroke-miterlimit:4;" d="M 46.007812 191 L 51.007812 191 L 51.007812 193 L 46.007812 193 Z M 46.007812 191 " transform="matrix(0.5,0,0,0.5,-10,-85)"/>
<path style="fill-rule:nonzero;fill:rgb(65.098039%,43.137255%,66.666667%);fill-opacity:1;stroke-width:1;stroke-linecap:butt;stroke-linejoin:miter;stroke:rgb(65.098039%,43.137255%,66.666667%);stroke-opacity:1;stroke-miterlimit:4;" d="M 54.257812 185.890625 L 50.78125 182.335938 L 49.367188 183.789062 L 52.84375 187.335938 Z M 54.257812 185.890625 " transform="matrix(0.5,0,0,0.5,-10,-85)"/>
<path style="fill-rule:nonzero;fill:rgb(65.098039%,43.137255%,66.666667%);fill-opacity:1;stroke-width:1;stroke-linecap:butt;stroke-linejoin:miter;stroke:rgb(65.098039%,43.137255%,66.666667%);stroke-opacity:1;stroke-miterlimit:4;" d="M 59.007812 198.117188 C 62.320312 198.117188 65.007812 195.429688 65.007812 192.117188 C 65.007812 188.804688 62.320312 186.117188 59.007812 186.117188 C 55.6875 186.117188 53.007812 188.804688 53.007812 192.117188 C 53.007812 195.429688 55.6875 198.117188 59.007812 198.117188 Z M 59.007812 188.117188 C 61.210938 188.117188 63.007812 189.90625 63.007812 192.117188 C 63.007812 194.328125 61.210938 196.117188 59.007812 196.117188 C 56.796875 196.117188 55.007812 194.328125 55.007812 192.117188 C 55.007812 189.90625 56.796875 188.117188 59.007812 188.117188 Z M 59.007812 188.117188 " transform="matrix(0.5,0,0,0.5,-10,-85)"/>
<path style="fill-rule:nonzero;fill:rgb(65.098039%,43.137255%,66.666667%);fill-opacity:1;stroke-width:1;stroke-linecap:butt;stroke-linejoin:miter;stroke:rgb(65.098039%,43.137255%,66.666667%);stroke-opacity:1;stroke-miterlimit:4;" d="M 58.007812 179 L 60.007812 179 L 60.007812 184 L 58.007812 184 Z M 58.007812 179 " transform="matrix(0.5,0,0,0.5,-10,-85)"/>
<path style="fill-rule:nonzero;fill:rgb(65.098039%,43.137255%,66.666667%);fill-opacity:1;stroke-width:1;stroke-linecap:butt;stroke-linejoin:miter;stroke:rgb(65.098039%,43.137255%,66.666667%);stroke-opacity:1;stroke-miterlimit:4;" d="M 67.007812 191 L 72.007812 191 L 72.007812 193 L 67.007812 193 Z M 67.007812 191 " transform="matrix(0.5,0,0,0.5,-10,-85)"/>
<path style="fill-rule:nonzero;fill:rgb(65.098039%,43.137255%,66.666667%);fill-opacity:1;stroke-width:1;stroke-linecap:butt;stroke-linejoin:miter;stroke:rgb(65.098039%,43.137255%,66.666667%);stroke-opacity:1;stroke-miterlimit:4;" d="M 68.648438 183.789062 L 67.226562 182.335938 L 63.757812 185.890625 L 65.164062 187.335938 Z M 68.648438 183.789062 " transform="matrix(0.5,0,0,0.5,-10,-85)"/>
<path style="fill-rule:nonzero;fill:rgb(65.098039%,43.137255%,66.666667%);fill-opacity:1;stroke-width:1;stroke-linecap:butt;stroke-linejoin:miter;stroke:rgb(65.098039%,43.137255%,66.666667%);stroke-opacity:1;stroke-miterlimit:4;" d="M 49.367188 200.328125 L 50.78125 201.765625 L 54.257812 198.21875 L 52.84375 196.765625 Z M 49.367188 200.328125 " transform="matrix(0.5,0,0,0.5,-10,-85)"/>
<path style="fill-rule:nonzero;fill:rgb(65.098039%,43.137255%,66.666667%);fill-opacity:1;stroke-width:1;stroke-linecap:butt;stroke-linejoin:miter;stroke:rgb(65.098039%,43.137255%,66.666667%);stroke-opacity:1;stroke-miterlimit:4;" d="M 58.007812 200.117188 L 60.007812 200.117188 L 60.007812 205.117188 L 58.007812 205.117188 Z M 58.007812 200.117188 " transform="matrix(0.5,0,0,0.5,-10,-85)"/>
<path style="fill-rule:nonzero;fill:rgb(65.098039%,43.137255%,66.666667%);fill-opacity:1;stroke-width:1;stroke-linecap:butt;stroke-linejoin:miter;stroke:rgb(65.098039%,43.137255%,66.666667%);stroke-opacity:1;stroke-miterlimit:4;" d="M 63.757812 198.21875 L 67.226562 201.765625 L 68.648438 200.328125 L 65.164062 196.765625 Z M 63.757812 198.21875 " transform="matrix(0.5,0,0,0.5,-10,-85)"/>
<path style="fill-rule:nonzero;fill:rgb(65.098039%,43.137255%,66.666667%);fill-opacity:1;stroke-width:1;stroke-linecap:butt;stroke-linejoin:miter;stroke:rgb(65.098039%,43.137255%,66.666667%);stroke-opacity:1;stroke-miterlimit:4;" d="M 107.007812 239 L 107.1875 239 L 107.273438 238.984375 C 111.265625 238.265625 113.953125 234.460938 113.953125 229.523438 C 113.953125 224.65625 108.71875 212.773438 105.976562 212.773438 C 103.234375 212.773438 98.007812 224.65625 98.007812 229.523438 C 98.007812 234.453125 100.6875 238.257812 104.6875 238.984375 L 105.007812 238.984375 L 105.007812 252 L 101.007812 252 L 101.007812 239.664062 C 100.265625 239.195312 99.59375 238.632812 99.007812 237.976562 L 99.007812 252 L 89.507812 252 L 89.507812 238.5 L 81.507812 238.5 L 81.507812 252 L 72.007812 252 L 72.007812 236.84375 L 85.484375 223.351562 L 97.0625 234.90625 C 96.554688 233.695312 96.226562 232.421875 96.101562 231.117188 L 85.484375 220.523438 L 69.039062 236.984375 L 67.921875 235.867188 L 85.507812 218.3125 L 96.039062 228.828125 C 96.109375 228.007812 96.242188 227.1875 96.421875 226.382812 L 85.507812 215.484375 L 65.09375 235.867188 L 69.039062 239.8125 L 70.007812 238.84375 L 70.007812 252 L 60.007812 252 L 60.007812 238.84375 L 60.96875 239.8125 L 64.921875 235.867188 L 56.507812 227.46875 L 56.507812 218.4375 L 50.507812 218.4375 L 50.507812 221.476562 L 44.507812 215.484375 L 24.085938 235.867188 L 28.039062 239.8125 L 29.007812 238.84375 L 29.007812 252 L 24.007812 252 L 24.007812 254 L 112.007812 254 L 112.007812 252 L 107.007812 252 Z M 100.007812 229.523438 C 100.007812 224.84375 104.5 216.125 105.976562 214.867188 C 107.453125 216.125 111.953125 224.84375 111.953125 229.523438 C 111.953125 233.429688 109.96875 236.421875 107 237 L 104.953125 237 C 101.992188 236.414062 100.007812 233.421875 100.007812 229.523438 Z M 52.507812 220.4375 L 54.507812 220.4375 L 54.507812 225.46875 L 52.507812 223.476562 Z M 28.039062 236.984375 L 26.921875 235.867188 L 44.507812 218.3125 L 62.085938 235.867188 L 60.96875 236.984375 L 44.484375 220.523438 Z M 46.507812 252 L 42.507812 252 L 42.507812 240.5 L 46.507812 240.5 Z M 58.007812 252 L 48.507812 252 L 48.507812 238.5 L 40.507812 238.5 L 40.507812 252 L 31.007812 252 L 31.007812 236.84375 L 44.484375 223.351562 L 58.007812 236.851562 Z M 87.507812 252 L 83.507812 252 L 83.507812 240.5 L 87.507812 240.5 Z M 87.507812 252 " transform="matrix(0.5,0,0,0.5,-10,-85)"/>
</g>
</svg>
