<?xml version="1.0" encoding="UTF-8"?>
<svg width="700pt" height="700pt" version="1.1" viewBox="0 0 700 700" xmlns="http://www.w3.org/2000/svg" xmlns:xlink="http://www.w3.org/1999/xlink">
 <defs>
  <symbol id="n" overflow="visible">
   <path style=" stroke:none;fill-rule:nonzero;fill:rgb(100%,100%,100%);fill-opacity:1;" d="m29.312-1.75c-1.5117 0.78125-3.0898 1.3711-4.7344 1.7656-1.6367 0.40625-3.3398 0.60938-5.1094 0.60938-5.3125 0-9.5273-1.4844-12.641-4.4531-3.1055-2.9688-4.6562-7-4.6562-12.094s1.5508-9.125 4.6562-12.094c3.1133-2.9688 7.3281-4.4531 12.641-4.4531 1.7695 0 3.4727 0.19922 5.1094 0.59375 1.6445 0.39844 3.2227 0.99219 4.7344 1.7812v6.5938c-1.5312-1.0391-3.0391-1.8008-4.5156-2.2812-1.4805-0.48828-3.0391-0.73438-4.6719-0.73438-2.9375 0-5.2461 0.94531-6.9219 2.8281-1.6797 1.875-2.5156 4.4648-2.5156 7.7656 0 3.293 0.83594 5.8828 2.5156 7.7656 1.6758 1.875 3.9844 2.8125 6.9219 2.8125 1.6328 0 3.1914-0.23828 4.6719-0.71875 1.4766-0.48828 2.9844-1.2539 4.5156-2.2969z"/>
  </symbol>
  <symbol id="e" overflow="visible">
   <path style=" stroke:none;fill-rule:nonzero;fill:rgb(100%,100%,100%);fill-opacity:1;" d="m21.453-17.406c-0.67969-0.3125-1.3516-0.53906-2.0156-0.6875-0.65625-0.15625-1.3203-0.23438-1.9844-0.23438-1.9688 0-3.4844 0.63281-4.5469 1.8906-1.0547 1.2617-1.5781 3.0703-1.5781 5.4219v11.016h-7.6562v-23.922h7.6562v3.9219c0.97656-1.5625 2.1016-2.7031 3.375-3.4219 1.2812-0.71875 2.8125-1.0781 4.5938-1.0781 0.25 0 0.52344 0.011719 0.82812 0.03125 0.30078 0.023438 0.73438 0.070312 1.2969 0.14062z"/>
  </symbol>
  <symbol id="d" overflow="visible">
   <path style=" stroke:none;fill-rule:nonzero;fill:rgb(100%,100%,100%);fill-opacity:1;" d="m27.562-12.031v2.1875h-17.891c0.1875 1.793 0.83203 3.1367 1.9375 4.0312 1.1133 0.89844 2.6719 1.3438 4.6719 1.3438 1.6016 0 3.25-0.23438 4.9375-0.70312 1.6875-0.47656 3.4219-1.2031 5.2031-2.1719v5.8906c-1.8047 0.6875-3.6094 1.2031-5.4219 1.5469-1.8125 0.35156-3.6211 0.53125-5.4219 0.53125-4.3359 0-7.7031-1.0977-10.109-3.2969-2.3984-2.207-3.5938-5.2969-3.5938-9.2656 0-3.9062 1.1758-6.9727 3.5312-9.2031 2.3633-2.2383 5.6094-3.3594 9.7344-3.3594 3.7578 0 6.7695 1.1367 9.0312 3.4062 2.2578 2.2617 3.3906 5.2812 3.3906 9.0625zm-7.8594-2.5312c0-1.457-0.42969-2.6289-1.2812-3.5156-0.84375-0.89453-1.9492-1.3438-3.3125-1.3438-1.4922 0-2.6992 0.41797-3.625 1.25-0.91797 0.83594-1.4922 2.0391-1.7188 3.6094z"/>
  </symbol>
  <symbol id="c" overflow="visible">
   <path style=" stroke:none;fill-rule:nonzero;fill:rgb(100%,100%,100%);fill-opacity:1;" d="m14.391-10.766c-1.5938 0-2.793 0.27344-3.5938 0.8125-0.80469 0.54297-1.2031 1.3398-1.2031 2.3906 0 0.96875 0.32031 1.7305 0.96875 2.2812 0.64453 0.54297 1.5469 0.8125 2.7031 0.8125 1.4375 0 2.6445-0.51562 3.625-1.5469 0.98828-1.0312 1.4844-2.3203 1.4844-3.875v-0.875zm11.688-2.8906v13.656h-7.7031v-3.5469c-1.0312 1.4492-2.1875 2.5078-3.4688 3.1719s-2.8398 1-4.6719 1c-2.4805 0-4.4961-0.72266-6.0469-2.1719-1.543-1.4453-2.3125-3.3203-2.3125-5.625 0-2.8125 0.96094-4.8672 2.8906-6.1719 1.9375-1.3125 4.9688-1.9688 9.0938-1.9688h4.5156v-0.60938c0-1.207-0.48047-2.0938-1.4375-2.6562-0.94922-0.5625-2.4375-0.84375-4.4688-0.84375-1.6367 0-3.1562 0.16797-4.5625 0.5-1.4062 0.32422-2.7188 0.8125-3.9375 1.4688v-5.8281c1.6445-0.40625 3.2891-0.70703 4.9375-0.90625 1.6562-0.20703 3.3047-0.3125 4.9531-0.3125 4.3203 0 7.4375 0.85547 9.3438 2.5625 1.9141 1.6992 2.875 4.4609 2.875 8.2812z"/>
  </symbol>
  <symbol id="b" overflow="visible">
   <path style=" stroke:none;fill-rule:nonzero;fill:rgb(100%,100%,100%);fill-opacity:1;" d="m12.031-30.719v6.7969h7.875v5.4688h-7.875v10.141c0 1.1172 0.21875 1.8711 0.65625 2.2656 0.4375 0.38672 1.3125 0.57812 2.625 0.57812h3.9375v5.4688h-6.5625c-3.0234 0-5.1641-0.62891-6.4219-1.8906-1.2617-1.2578-1.8906-3.3984-1.8906-6.4219v-10.141h-3.7969v-5.4688h3.7969v-6.7969z"/>
  </symbol>
  <symbol id="h" overflow="visible">
   <path style=" stroke:none;fill-rule:nonzero;fill:rgb(100%,100%,100%);fill-opacity:1;" d="m19.953-20.422v-12.812h7.6875v33.234h-7.6875v-3.4531c-1.0547 1.4062-2.2148 2.4375-3.4844 3.0938-1.2734 0.65625-2.7422 0.98438-4.4062 0.98438-2.9492 0-5.3711-1.1719-7.2656-3.5156-1.8867-2.3438-2.8281-5.3594-2.8281-9.0469s0.94141-6.7031 2.8281-9.0469c1.8945-2.3438 4.3164-3.5156 7.2656-3.5156 1.6562 0 3.1172 0.33594 4.3906 1 1.2812 0.65625 2.4453 1.6836 3.5 3.0781zm-5.0469 15.484c1.6445 0 2.8945-0.59766 3.75-1.7969 0.86328-1.1953 1.2969-2.9297 1.2969-5.2031 0-2.2812-0.43359-4.0195-1.2969-5.2188-0.85547-1.1953-2.1055-1.7969-3.75-1.7969-1.625 0-2.8711 0.60156-3.7344 1.7969-0.85547 1.1992-1.2812 2.9375-1.2812 5.2188 0 2.2734 0.42578 4.0078 1.2812 5.2031 0.86328 1.1992 2.1094 1.7969 3.7344 1.7969z"/>
  </symbol>
  <symbol id="a" overflow="visible">
   <path style=" stroke:none;fill-rule:nonzero;fill:rgb(100%,100%,100%);fill-opacity:1;" d="m16.406-4.9375c1.6328 0 2.8828-0.59766 3.75-1.7969 0.86328-1.1953 1.2969-2.9297 1.2969-5.2031 0-2.2812-0.43359-4.0195-1.2969-5.2188-0.86719-1.1953-2.1172-1.7969-3.75-1.7969-1.6367 0-2.8906 0.60547-3.7656 1.8125-0.875 1.1992-1.3125 2.9336-1.3125 5.2031 0 2.2617 0.4375 3.9961 1.3125 5.2031 0.875 1.1992 2.1289 1.7969 3.7656 1.7969zm-5.0781-15.484c1.0508-1.3945 2.2188-2.4219 3.5-3.0781 1.2812-0.66406 2.7539-1 4.4219-1 2.9453 0 5.3672 1.1719 7.2656 3.5156 1.8945 2.3438 2.8438 5.3594 2.8438 9.0469s-0.94922 6.7031-2.8438 9.0469c-1.8984 2.3438-4.3203 3.5156-7.2656 3.5156-1.668 0-3.1406-0.33594-4.4219-1s-2.4492-1.6914-3.5-3.0781v3.4531h-7.6562v-33.234h7.6562z"/>
  </symbol>
  <symbol id="g" overflow="visible">
   <path style=" stroke:none;fill-rule:nonzero;fill:rgb(100%,100%,100%);fill-opacity:1;" d="m0.53125-23.922h7.6562l6.4219 16.234 5.4688-16.234h7.6562l-10.062 26.188c-1.0117 2.6641-2.1953 4.5234-3.5469 5.5781-1.3438 1.0625-3.1211 1.5938-5.3281 1.5938h-4.4219v-5.0156h2.3906c1.3008 0 2.2422-0.21094 2.8281-0.625 0.59375-0.40625 1.0547-1.1484 1.3906-2.2188l0.20312-0.65625z"/>
  </symbol>
  <symbol id="f" overflow="visible">
   <path style=" stroke:none;fill-rule:nonzero;fill:rgb(100%,100%,100%);fill-opacity:1;" d="m26.219-30.891v6.75c-1.7617-0.78125-3.4766-1.3672-5.1406-1.7656-1.668-0.40625-3.2422-0.60938-4.7188-0.60938-1.9609 0-3.4141 0.27344-4.3594 0.8125-0.9375 0.54297-1.4062 1.3867-1.4062 2.5312 0 0.85547 0.31641 1.5234 0.95312 2 0.63281 0.46875 1.7852 0.875 3.4531 1.2188l3.5 0.70312c3.5391 0.71875 6.0625 1.8047 7.5625 3.25 1.5 1.4492 2.25 3.5117 2.25 6.1875 0 3.5234-1.0469 6.1406-3.1406 7.8594-2.0859 1.7188-5.2734 2.5781-9.5625 2.5781-2.0234 0-4.0547-0.19531-6.0938-0.57812-2.0312-0.38281-4.0625-0.95703-6.0938-1.7188v-6.9375c2.0312 1.0859 3.9922 1.9023 5.8906 2.4531 1.9062 0.54297 3.7422 0.8125 5.5156 0.8125 1.7891 0 3.1602-0.29688 4.1094-0.89062 0.95703-0.60156 1.4375-1.457 1.4375-2.5625 0-1-0.32422-1.7695-0.96875-2.3125-0.64844-0.53906-1.9375-1.0234-3.875-1.4531l-3.1875-0.70312c-3.1875-0.6875-5.5234-1.7734-7-3.2656-1.4688-1.5-2.2031-3.5156-2.2031-6.0469 0-3.1758 1.0234-5.6172 3.0781-7.3281 2.0508-1.707 5-2.5625 8.8438-2.5625 1.75 0 3.5508 0.13281 5.4062 0.39062 1.8516 0.26172 3.7695 0.65625 5.75 1.1875z"/>
  </symbol>
  <symbol id="m" overflow="visible">
   <path style=" stroke:none;fill-rule:nonzero;fill:rgb(100%,100%,100%);fill-opacity:1;" d="m3.6719-23.922h7.6562v23.922h-7.6562zm0-9.3125h7.6562v6.2344h-7.6562z"/>
  </symbol>
  <symbol id="l" overflow="visible">
   <path style=" stroke:none;fill-rule:nonzero;fill:rgb(100%,100%,100%);fill-opacity:1;" d="m27.734-14.562v14.562h-7.7031v-11.156c0-2.0625-0.046875-3.4844-0.14062-4.2656-0.085937-0.78125-0.24219-1.3594-0.46875-1.7344-0.30469-0.5-0.71094-0.88281-1.2188-1.1562-0.51172-0.28125-1.0938-0.42188-1.75-0.42188-1.5938 0-2.8516 0.61719-3.7656 1.8438-0.90625 1.2305-1.3594 2.9375-1.3594 5.125v11.766h-7.6562v-23.922h7.6562v3.5c1.1445-1.3945 2.3633-2.4219 3.6562-3.0781 1.3008-0.66406 2.7383-1 4.3125-1 2.7578 0 4.8516 0.85156 6.2812 2.5469 1.4375 1.6875 2.1562 4.1523 2.1562 7.3906z"/>
  </symbol>
  <symbol id="k" overflow="visible">
   <path style=" stroke:none;fill-rule:nonzero;fill:rgb(100%,100%,100%);fill-opacity:1;" d="m19.953-4.0625c-1.0547 1.3984-2.2148 2.4219-3.4844 3.0781-1.2734 0.65625-2.7422 0.98438-4.4062 0.98438-2.918 0-5.3281-1.1484-7.2344-3.4531-1.9062-2.3008-2.8594-5.2266-2.8594-8.7812 0-3.582 0.95312-6.5156 2.8594-8.7969s4.3164-3.4219 7.2344-3.4219c1.6641 0 3.1328 0.32812 4.4062 0.98438 1.2695 0.64844 2.4297 1.6797 3.4844 3.0938v-3.5469h7.6875v21.516c0 3.8438-1.2148 6.7734-3.6406 8.7969-2.4297 2.0312-5.9492 3.0469-10.562 3.0469-1.5 0-2.9492-0.11719-4.3438-0.34375-1.3984-0.21875-2.7969-0.57031-4.2031-1.0469v-5.9531c1.3438 0.76953 2.6562 1.3438 3.9375 1.7188s2.5664 0.5625 3.8594 0.5625c2.5078 0 4.3477-0.54688 5.5156-1.6406 1.1641-1.0938 1.75-2.8047 1.75-5.1406zm-5.0469-14.891c-1.5742 0-2.8047 0.58984-3.6875 1.7656-0.88672 1.168-1.3281 2.8203-1.3281 4.9531 0 2.1875 0.42578 3.8516 1.2812 4.9844 0.85156 1.1367 2.0977 1.7031 3.7344 1.7031 1.5938 0 2.832-0.58203 3.7188-1.75 0.88281-1.1758 1.3281-2.8203 1.3281-4.9375 0-2.1328-0.44531-3.7852-1.3281-4.9531-0.88672-1.1758-2.125-1.7656-3.7188-1.7656z"/>
  </symbol>
  <symbol id="j" overflow="visible">
   <path style=" stroke:none;fill-rule:nonzero;fill:rgb(100%,100%,100%);fill-opacity:1;" d="m4.0156-31.891h8.2188v25.672h14.453v6.2188h-22.672z"/>
  </symbol>
  <symbol id="i" overflow="visible">
   <path style=" stroke:none;fill-rule:nonzero;fill:rgb(100%,100%,100%);fill-opacity:1;" d="m22.359-23.172v5.7969c-1.6367-0.67578-3.2148-1.1875-4.7344-1.5312-1.5234-0.34375-2.9609-0.51562-4.3125-0.51562-1.4609 0-2.543 0.18359-3.25 0.54688-0.69922 0.36719-1.0469 0.92188-1.0469 1.6719 0 0.61719 0.26562 1.0898 0.79688 1.4219 0.53125 0.32422 1.4883 0.5625 2.875 0.71875l1.3438 0.1875c3.9141 0.5 6.5508 1.3242 7.9062 2.4688 1.3516 1.1367 2.0312 2.9219 2.0312 5.3594 0 2.5547-0.94531 4.4688-2.8281 5.75-1.875 1.2812-4.6797 1.9219-8.4062 1.9219-1.5859 0-3.2188-0.125-4.9062-0.375s-3.4219-0.625-5.2031-1.125v-5.8125c1.5195 0.74219 3.082 1.2969 4.6875 1.6719 1.6016 0.36719 3.2344 0.54688 4.8906 0.54688 1.4883 0 2.6094-0.20312 3.3594-0.60938 0.75781-0.41406 1.1406-1.0312 1.1406-1.8438 0-0.6875-0.26172-1.1953-0.78125-1.5312-0.52344-0.33203-1.5586-0.59375-3.1094-0.78125l-1.3438-0.17188c-3.4062-0.42578-5.793-1.2109-7.1562-2.3594-1.3672-1.1562-2.0469-2.9102-2.0469-5.2656 0-2.5312 0.86719-4.4062 2.6094-5.625 1.7383-1.2266 4.3984-1.8438 7.9844-1.8438 1.4062 0 2.8828 0.10938 4.4375 0.32812 1.5508 0.21094 3.2383 0.54297 5.0625 1z"/>
  </symbol>
 </defs>
 <g>
  <path style=" stroke:none;fill-rule:nonzero;fill:rgb(100%,100%,100%);fill-opacity:1;" d="m291.86 63.438c-7.2031 0-14.113 2.8672-19.207 7.9648-5.0977 5.0938-7.9648 12.004-7.9648 19.207v220.02c0 3.625 2.9375 6.5625 6.5625 6.5625s6.5625-2.9375 6.5625-6.5625v-220.02c0-3.7305 1.4805-7.2891 4.1172-9.9297 2.6406-2.6367 6.1992-4.1172 9.9297-4.1172h116.28c3.7305 0 7.2891 1.4805 9.9297 4.1172 2.6367 2.6406 4.1172 6.1992 4.1172 9.9297v58.02 0.12109 183.75c0 3.625 2.9375 6.5625 6.5625 6.5625s6.5625-2.9375 6.5625-6.5625v-177.19h70.152c3.7344 0 7.3086 1.4883 9.9297 4.1172h0.019531c2.6367 2.6406 4.1016 6.1992 4.1016 9.9297v163.14c0 3.625 2.9375 6.5625 6.5625 6.5625 3.6211 0 6.5625-2.9375 6.5625-6.5625v-163.14c0-7.2031-2.8516-14.113-7.9492-19.207-5.0938-5.1055-12.02-7.9648-19.227-7.9648h-70.152v-51.578c0-7.2031-2.8672-14.113-7.9648-19.207-5.0938-5.0977-12.004-7.9648-19.207-7.9648zm13.281 52.5c-7.7695 0-14.203 6.4336-14.203 14.203v19.719c0 7.7695 6.4336 14.203 14.203 14.203h19.719c7.7695 0 14.203-6.4336 14.203-14.203v-19.719c0-7.7695-6.4336-14.203-14.203-14.203zm70 0c-7.7695 0-14.203 6.4336-14.203 14.203v19.719c0 7.7695 6.4336 14.203 14.203 14.203h19.719c7.7695 0 14.203-6.4336 14.203-14.203v-19.719c0-7.7695-6.4336-14.203-14.203-14.203zm-70 13.125h19.719c0.6875 0 1.0781 0.39062 1.0781 1.0781v19.719c0 0.6875-0.39062 1.0781-1.0781 1.0781h-19.719c-0.6875 0-1.0781-0.39062-1.0781-1.0781v-19.719c0-0.6875 0.39062-1.0781 1.0781-1.0781zm70 0h19.719c0.6875 0 1.0781 0.39062 1.0781 1.0781v19.719c0 0.6875-0.39062 1.0781-1.0781 1.0781h-19.719c-0.6875 0-1.0781-0.39062-1.0781-1.0781v-19.719c0-0.6875 0.39062-1.0781 1.0781-1.0781zm-179.53 13.125c-7.2031 0-14.113 2.8672-19.207 7.9648-5.0977 5.0938-7.9648 12.004-7.9648 19.207v141.27c0 3.625 2.9375 6.5625 6.5625 6.5625s6.5625-2.9375 6.5625-6.5625v-141.27c0-3.7305 1.4805-7.2891 4.1172-9.9297 2.6406-2.6367 6.1992-4.1172 9.9297-4.1172h40.641c3.625 0 6.5625-2.9375 6.5625-6.5625s-2.9375-6.5625-6.5625-6.5625zm109.53 43.75c-7.7695 0-14.203 6.4336-14.203 14.203v19.719c0 7.7695 6.4336 14.203 14.203 14.203h19.719c7.7695 0 14.203-6.4336 14.203-14.203v-19.719c0-7.7695-6.4336-14.203-14.203-14.203zm70 0c-7.7695 0-14.203 6.4336-14.203 14.203v19.719c0 3.625 2.9375 6.5625 6.5625 6.5625s6.5625-2.9375 6.5625-6.5625v-19.719c0-0.6875 0.39062-1.0781 1.0781-1.0781h19.719c0.6875 0 1.0781 0.39062 1.0781 1.0781v19.719c0 0.6875-0.39062 1.0781-1.0781 1.0781-3.6211 0-6.5625 2.9375-6.5625 6.5625s2.9414 6.5625 6.5625 6.5625c7.7695 0 14.203-6.4336 14.203-14.203v-19.719c0-7.7695-6.4336-14.203-14.203-14.203zm-70 13.125h19.719c0.6875 0 1.0781 0.39062 1.0781 1.0781v19.719c0 0.6875-0.39062 1.0781-1.0781 1.0781h-19.719c-0.6875 0-1.0781-0.39062-1.0781-1.0781v-19.719c0-0.6875 0.39062-1.0781 1.0781-1.0781zm-110.93 135.59c-15.898 0.078125-30.016 1.8984-40.793 3.8633-0.050781 0.011719-0.10156 0.023437-0.15234 0.035156-7.3984 1.543-13.797 6.1836-17.566 12.73-3.7695 6.5391-4.5977 14.379-2.2422 21.551 0.019531 0.058594 0.035156 0.11328 0.050781 0.17188 9.8242 27.516 32.453 75.035 79.23 102.04s99.246 22.832 127.98 17.602c0.058594-0.011719 0.11719-0.023438 0.17188-0.035157 5.1016-1.0742 9.6602-3.6992 13.277-7.3281 3.3594 4.1289 7.9727 7.0938 13.246 8.2031 0.058594 0.011719 0.11328 0.023438 0.17188 0.03125 24.199 4.4102 68.398 7.9688 107.92-14.852 39.531-22.824 58.547-62.871 66.82-86.047 0.023437-0.054688 0.046875-0.11328 0.070313-0.17188 2.0703-6.3008 1.3438-13.176-1.9648-18.918v-0.015625c-3.3164-5.7383-8.9297-9.7969-15.418-11.16-0.054687-0.011719-0.11328-0.023438-0.16797-0.035157-12.102-2.2031-29.195-4.1953-48.211-2.7852-19.016 1.4141-39.949 6.2422-59.711 17.656-8.8945 5.1328-17.633 10.852-24.629 18.574-9.3164 10.293-21.551 29.414-21.551 29.414-1.9688 3.0391-1.1055 7.1016 1.9336 9.0742 3.0391 1.9688 7.1016 1.1055 9.0742-1.9336 0 0 12.664-19.336 20.266-27.734 5.4844-6.0508 13.051-11.172 21.469-16.031 35.23-20.348 76.246-17.418 98.863-13.312 2.8164 0.60547 5.2773 2.3477 6.7148 4.8359 1.4453 2.5039 1.7383 5.4883 0.85547 8.2188-7.7383 21.641-25.723 58.652-60.977 79.008-35.234 20.34-76.25 17.402-98.863 13.297-0.44531-0.097656-0.85938-0.27734-1.2812-0.42969 0 0 31.18-53.477 96.676-71.348 3.4883-0.95703 5.5469-4.5586 4.5977-8.0508-0.75-2.7578-3.1953-4.7109-6.0508-4.8359-0.67578-0.023438-1.3477 0.058594-2 0.23828-56.809 15.504-89.328 55.414-100.16 70.84 0.046875-2.9258-0.24609-5.8633-1.1797-8.6992-0.015626-0.058594-0.03125-0.11328-0.050782-0.17188-9.8281-27.5-32.449-75.035-79.227-102.04-23.391-13.504-48.195-19.211-70.754-20.883-5.6367-0.42188-11.141-0.58984-16.441-0.56641zm-0.015625 13.195c4.9531-0.019531 10.078 0.14062 15.328 0.52734 21.062 1.5586 44.047 6.8086 65.32 19.09 41.637 24.043 63.117 67.129 72.715 93.293-33.793-30.023-70.574-52.305-112.25-60.461-0.41406-0.082031-0.83984-0.12109-1.2617-0.12109-3.1406 0-5.8398 2.2188-6.4453 5.2969-0.33594 1.7109 0.019532 3.4805 0.99219 4.9297 0.97266 1.4453 2.4766 2.4453 4.1875 2.7773 41.07 8.043 77.711 31.102 112.07 62.926-1.8125 1.7852-4.0898 3.0781-6.6289 3.625-27.16 4.9258-76.441 8.4844-118.93-16.047-42.492-24.535-64.078-69.008-73.367-94.988-1.1719-3.6211-0.77344-7.5703 1.1289-10.867 1.9062-3.3086 5.1094-5.6172 8.8359-6.4102 10.168-1.8477 23.438-3.5117 38.297-3.5703z"/>
 </g>
</svg>
