<svg width="46" height="47" xmlns="http://www.w3.org/2000/svg" xmlns:xlink="http://www.w3.org/1999/xlink" overflow="hidden"><defs><clipPath id="clip0"><rect x="56" y="233" width="46" height="47"/></clipPath></defs><g clip-path="url(#clip0)" transform="translate(-56 -233)"><path d="M13.4167 20.125 32.5833 20.125 32.5833 21.0833 13.4167 21.0833Z" stroke="#A66EAA" stroke-width="0.479167" fill="#A66EAA" transform="matrix(1 0 0 1.02174 56 233)"/><path d="M13.4167 16.2917 22.5208 16.2917 22.5208 17.25 13.4167 17.25Z" stroke="#A66EAA" stroke-width="0.479167" fill="#A66EAA" transform="matrix(1 0 0 1.02174 56 233)"/><path d="M13.4167 23.9583 32.5833 23.9583 32.5833 24.9167 13.4167 24.9167Z" stroke="#A66EAA" stroke-width="0.479167" fill="#A66EAA" transform="matrix(1 0 0 1.02174 56 233)"/><path d="M13.4167 27.7917 32.5833 27.7917 32.5833 28.75 13.4167 28.75Z" stroke="#A66EAA" stroke-width="0.479167" fill="#A66EAA" transform="matrix(1 0 0 1.02174 56 233)"/><path d="M13.4167 31.625 32.5833 31.625 32.5833 32.5833 13.4167 32.5833Z" stroke="#A66EAA" stroke-width="0.479167" fill="#A66EAA" transform="matrix(1 0 0 1.02174 56 233)"/><path d="M13.4167 35.4583 32.5833 35.4583 32.5833 36.4167 13.4167 36.4167Z" stroke="#A66EAA" stroke-width="0.479167" fill="#A66EAA" transform="matrix(1 0 0 1.02174 56 233)"/><path d="M8.625 3.83333 8.625 42.1667 37.375 42.1667 37.375 14.1766 27.0317 3.83333ZM27.3206 5.47735 35.731 13.8877C35.7328 13.8896 35.7328 13.8926 35.7309 13.8944 35.73 13.8953 35.7289 13.8958 35.7276 13.8958L27.3125 13.8958 27.3125 5.48071C27.3125 5.47807 27.3147 5.47596 27.3173 5.47596 27.3186 5.47601 27.3198 5.47649 27.3206 5.47735ZM9.58333 41.2083 9.58333 4.79167 26.3542 4.79167 26.3542 14.8542 36.4167 14.8542 36.4167 41.2083Z" stroke="#A66EAA" stroke-width="0.479167" fill="#A66EAA" transform="matrix(1 0 0 1.02174 56 233)"/></g></svg>