<svg width="66" height="44" xmlns="http://www.w3.org/2000/svg" xmlns:xlink="http://www.w3.org/1999/xlink" overflow="hidden"><defs><clipPath id="clip0"><rect x="46" y="518" width="66" height="44"/></clipPath></defs><g clip-path="url(#clip0)" transform="translate(-46 -518)"><path d="M49.5 23.0374C53.9536 23.0374 59.6118 24.6338 61.875 25.3962L61.875 27.7138C61.8742 27.7934 61.8615 27.8724 61.8372 27.9482L61.0493 28.5395 60.5337 28.9266 60.5014 29.5708C60.2951 33.6916 59.7994 36.4712 59.0322 37.8256 57.6304 40.2641 53.0881 42.9818 48.8111 42.9818 40.1094 42.9818 36.9071 35.6978 35.772 31.3555L35.761 31.3115 35.75 31.2675C35.369 30.0657 34.2607 29.2433 33 29.227 31.6865 29.2177 30.5373 30.1087 30.2191 31.383 29.1321 35.7211 25.9944 42.9811 17.1868 42.9811 12.9106 42.9811 8.36756 40.2641 6.96575 37.8249L6.95475 37.8049 6.94237 37.785C6.13387 36.4822 5.59419 33.4242 5.49863 29.6038L5.48281 28.9809 5.00156 28.5821 4.17656 27.8946 4.147 27.8699C4.13019 27.7962 4.12279 27.7206 4.125 27.6451L4.125 25.4052C5.88225 24.8366 11.8195 23.0374 16.5 23.0374 20.3658 23.0374 29.1899 24.9329 32.0897 25.5557L32.7154 25.6891 33.0007 25.7496 33.286 25.6891 33.9123 25.5557C36.8122 24.9329 45.6362 23.0374 49.5021 23.0374M49.5021 21.6624C45.1708 21.6624 35.2708 23.8624 33.0021 24.3437 30.7333 23.8624 20.8333 21.6624 16.5021 21.6624 11.3458 21.6624 4.74581 23.7249 3.16456 24.2749 2.92503 24.3532 2.76014 24.573 2.75206 24.8249L2.75206 27.6437C2.71259 28.1425 2.91764 28.6296 3.30206 28.9499L4.12706 29.6374C4.19581 32.3874 4.53956 36.5124 5.77706 38.5062 7.35831 41.2562 12.2396 44.3499 17.1896 44.3499 25.9208 44.3499 30.0458 37.7499 31.5583 31.6999 31.7334 31.0476 32.3267 30.5956 33.0021 30.5999 33.6703 30.6165 34.2525 31.0601 34.4458 31.6999 36.0271 37.7499 40.1521 44.3534 48.8146 44.3534 53.7646 44.3534 58.6458 41.2596 60.2271 38.5096 61.3958 36.4471 61.7396 32.3909 61.8771 29.6409L62.7021 29.0221C63.0753 28.6936 63.2779 28.2125 63.2521 27.7159L63.2521 24.8971C63.1828 24.5534 63.0453 24.3471 62.8396 24.2784 61.3271 23.7284 54.7271 21.6659 49.5021 21.6659Z" fill="#FFFFFF" transform="matrix(1 0 0 1.01502 46 507.361)"/><path d="M16.5 26.8194C19.1941 26.9807 21.8724 27.3441 24.5121 27.9063 25.1947 28.026 25.7944 28.4298 26.1621 29.0173 26.5133 29.5689 26.6133 30.2438 26.4371 30.8736 25.3 34.8879 23.8872 39.8867 17.1875 39.8867 14.3083 39.8867 11.2207 38.4904 10.0162 36.6554 9.273 35.4867 9.27713 32.1606 9.28056 29.4821L9.28056 28.8839C9.27843 28.3867 9.61015 27.9498 10.0897 27.8183 12.178 27.226 14.3306 26.8906 16.5 26.8194M16.5 25.4444C14.2112 25.5148 11.9397 25.8657 9.73637 26.4894 8.65618 26.7831 7.90639 27.7638 7.90625 28.8833L7.90625 29.48C7.90213 32.6287 7.89731 35.8854 8.85706 37.3931 10.3269 39.6344 13.8311 41.2617 17.1882 41.2617 24.9267 41.2617 26.6338 35.2344 27.7633 31.2469 28.0444 30.2432 27.8868 29.1673 27.3295 28.2865 26.7531 27.3684 25.8145 26.7378 24.7466 26.5512 22.0302 25.9711 19.2732 25.601 16.5 25.4444Z" fill="#FFFFFF" transform="matrix(1 0 0 1.01502 46 507.361)"/><path d="M49.4313 26.8194C51.5912 26.8783 53.7351 27.2112 55.8112 27.8101 56.3116 27.9388 56.6588 28.3934 56.6514 28.9101 56.7105 31.6422 56.7889 35.3836 55.9976 36.6314 54.7807 38.4876 51.6924 39.8839 48.8132 39.8839 42.6257 39.8839 40.9069 35.6214 39.5594 30.866 39.3849 30.2321 39.4861 29.5541 39.8379 28.9988 40.1945 28.4206 40.7797 28.0208 41.448 27.8988 44.0784 27.3399 46.7469 26.9791 49.4313 26.8194M49.4313 25.4444C46.6597 25.6008 43.9042 25.9707 41.1895 26.5506 40.1448 26.7438 39.2303 27.3696 38.6719 28.2734 38.114 29.1586 37.9562 30.2384 38.2374 31.2462 39.3009 34.9938 41.0768 41.2617 48.8125 41.2617 52.1689 41.2617 55.6724 39.6344 57.1464 37.389 58.1742 35.7734 58.0951 32.109 58.025 28.8833 58.0239 27.7616 57.271 26.7799 56.188 26.488 53.9892 25.8545 51.7187 25.5038 49.4313 25.4444Z" fill="#FFFFFF" transform="matrix(1 0 0 1.01502 46 507.361)"/></g></svg>