<svg width="55" height="45" xmlns="http://www.w3.org/2000/svg" xmlns:xlink="http://www.w3.org/1999/xlink" overflow="hidden"><defs><clipPath id="clip0"><rect x="50" y="590" width="55" height="45"/></clipPath></defs><g clip-path="url(#clip0)" transform="translate(-50 -590)"><path d="M42.6725 22.0012C43.0786 21.2949 43.4052 20.5457 43.6462 19.7674L46.1665 18.5073 46.1665 15.6433 43.6462 14.3832C43.4355 13.6031 43.1277 12.8526 42.7298 12.1493L43.6462 9.45725 41.5842 7.39523 38.8921 8.31168C38.1892 7.91153 37.4387 7.60154 36.6582 7.38893L35.3981 4.86867 32.5342 4.86867 31.2741 7.38893C30.4939 7.59942 29.7434 7.9073 29.0402 8.30538L26.3481 7.38893 24.2861 9.45095 25.2025 12.143C24.8046 12.8463 24.4967 13.5968 24.2861 14.3769L21.7658 15.637 21.7658 18.501 24.2861 19.7611C24.4968 20.5412 24.8047 21.2916 25.2025 21.9949L24.2861 24.687 26.2908 26.6918 28.9829 25.7753C29.6862 26.1732 30.4367 26.4811 31.2168 26.6918L32.4769 29.212 35.3408 29.212 36.601 26.6918C37.381 26.4812 38.1315 26.1733 38.8348 25.7753L41.5269 26.6918 43.5889 24.687ZM41.5876 22.3701 42.2715 24.3777 41.2319 25.3887 39.2043 24.6979 38.7094 24.5295 38.2575 24.793C37.6372 25.1435 36.9749 25.4139 36.2865 25.5978L35.8019 25.7364 35.5762 26.1872 34.6329 28.0773 33.1866 28.0773 32.2432 26.1872 32.0175 25.7364 31.533 25.5978C30.8444 25.4139 30.1819 25.1435 29.5614 24.793L29.1101 24.5295 28.6152 24.6979 26.5978 25.3853 25.6012 24.3886 26.2885 22.3707 26.4569 21.8758 26.1935 21.4244C25.8437 20.8037 25.5742 20.141 25.3916 19.4523L25.2529 18.9678 24.8027 18.7427 22.9114 17.7981 22.9114 16.3496 24.8016 15.4079 25.2518 15.1822 25.3904 14.6977C25.5732 14.0092 25.8426 13.3467 26.1923 12.7261L26.4558 12.2742 26.2874 11.7799 25.6 9.7614 26.654 8.70748 28.6713 9.39482 29.1662 9.56665 29.6176 9.3026C30.2382 8.95303 30.9007 8.68359 31.5891 8.5007L32.076 8.35407 32.3016 7.90329 33.245 6.0131 34.693 6.0131 35.6364 7.90329 35.8621 8.35407 36.3461 8.49268C37.0346 8.67546 37.697 8.9449 38.3176 9.29458L38.7695 9.55863 39.2644 9.3868 41.2812 8.69946 42.3351 9.75338 41.6478 11.7719 41.4794 12.2662 41.7428 12.7181C42.0933 13.3387 42.3637 14.0012 42.5476 14.6896L42.6856 15.1742 43.1364 15.3999 45.0266 16.3438 45.0266 17.7924 43.1364 18.7364 42.6982 18.9557 42.5539 19.4243C42.3385 20.1202 42.0472 20.7901 41.685 21.4222L41.4215 21.8735Z" stroke="#FFFFFF" stroke-width="0.572785" fill="#FFFFFF" transform="matrix(6.12323e-17 1 -1.00023 6.12464e-17 105 583.935)"/><path d="M8.82089 36.4394 8.82089 39.3034 11.3411 40.5635C11.5518 41.3436 11.8597 42.0941 12.2576 42.7973L11.3984 45.4894 13.4032 47.4942 16.0953 46.635C16.7985 47.033 17.549 47.3409 18.3291 47.5515L19.5892 50.0717 22.4532 50.0717 23.7133 47.5515C24.4934 47.3408 25.2439 47.0329 25.9472 46.635L28.6392 47.5515 30.644 45.4894 29.7848 42.8546C30.1827 42.1514 30.4906 41.4008 30.7013 40.6208L33.2215 39.3606 33.2215 36.4967 30.7013 35.2366C30.4906 34.4565 30.1827 33.706 29.7848 33.0027L30.7013 30.3106 28.6392 28.2486 25.9472 29.1651C25.2392 28.7769 24.4899 28.4695 23.7133 28.2486L22.4532 25.7284 19.5892 25.7284 18.3291 28.2486C17.549 28.4592 16.7985 28.767 16.0953 29.1651L13.4032 28.2486 11.3984 30.2534 12.2576 32.9454C11.8695 33.6535 11.5621 34.4027 11.3411 35.1793ZM12.292 35.9812 12.4363 35.5127C12.6334 34.8206 12.9054 34.152 13.2474 33.5188L13.504 33.0783 13.3488 32.5932 12.7021 30.5649 13.709 29.5574 15.7264 30.2448 16.2213 30.4137 16.6726 30.1503C17.293 29.7995 17.9555 29.529 18.6441 29.3455L19.131 29.212 19.3567 28.7612 20.3001 26.8711 21.7481 26.8711 22.6914 28.7612 22.9108 29.2 23.3794 29.3438C24.0712 29.5413 24.7396 29.8135 25.3727 30.1554L25.8246 30.4189 26.3195 30.2499 28.3362 29.5626 29.3902 30.6171 28.7028 32.635 28.5344 33.1293 28.7979 33.5812C29.1485 34.202 29.4189 34.8646 29.6027 35.5533L29.7407 36.0373 30.1915 36.263 32.076 37.2047 32.076 38.6532 30.1858 39.5972 29.735 39.8229 29.5969 40.3069C29.4131 40.9956 29.1427 41.6582 28.7922 42.279L28.5333 42.7229 28.6925 43.2115 29.3375 45.1893 28.3242 46.2363 26.3195 45.553 25.8246 45.3846 25.3727 45.6481C24.7518 45.9991 24.0887 46.2696 23.3994 46.4529L22.9148 46.5915 22.6897 47.0423 21.7464 48.9324 20.2984 48.9324 19.355 47.0423 19.1293 46.5915 18.6447 46.4529C17.9561 46.2693 17.2936 45.9989 16.6732 45.6481L16.2333 45.3915 15.7476 45.5461 13.7205 46.1934 12.7027 45.1755 13.3493 43.1473 13.5045 42.6622 13.2479 42.2217C12.8972 41.6013 12.6268 40.9388 12.4432 40.2502L12.3046 39.7656 11.8544 39.5399 9.96417 38.596 9.96417 37.1474 11.8544 36.2034Z" stroke="#FFFFFF" stroke-width="0.572785" fill="#FFFFFF" transform="matrix(6.12323e-17 1 -1.00023 6.12464e-17 105 583.935)"/><path d="M33.9661 12.7765C31.5936 12.7765 29.6703 14.6999 29.6703 17.0724 29.6703 19.445 31.5936 21.3683 33.9661 21.3683 36.3387 21.3683 38.262 19.445 38.262 17.0724 38.2443 14.7073 36.3313 12.7943 33.9661 12.7765ZM33.9661 20.2227C32.2273 20.2202 30.8183 18.8112 30.8158 17.0724 30.839 15.3422 32.2359 13.9452 33.9661 13.9221 35.7049 13.9246 37.1139 15.3336 37.1165 17.0724 37.0949 18.8037 35.6973 20.2022 33.9661 20.225Z" stroke="#FFFFFF" stroke-width="0.572785" fill="#FFFFFF" transform="matrix(6.12323e-17 1 -1.00023 6.12464e-17 105 583.935)"/><path d="M21.0212 42.2263C23.3937 42.2263 25.3171 40.3029 25.3171 37.9304 25.3171 35.5579 23.3937 33.6345 21.0212 33.6345 18.6487 33.6345 16.7253 35.5579 16.7253 37.9304 16.7225 40.3001 18.6412 42.2234 21.0109 42.2263 21.0143 42.2263 21.0178 42.2263 21.0212 42.2263ZM21.0212 34.7772C22.7611 34.7772 24.1715 36.1876 24.1715 37.9275 24.1715 39.6674 22.7611 41.0778 21.0212 41.0778 19.2813 41.0778 17.8709 39.6674 17.8709 37.9275 17.8734 36.1887 19.2824 34.7797 21.0212 34.7772Z" stroke="#FFFFFF" stroke-width="0.572785" fill="#FFFFFF" transform="matrix(6.12323e-17 1 -1.00023 6.12464e-17 105 583.935)"/></g></svg>